solid OpenSCAD_Model
  facet normal 0 0 -1
    outer loop
      vertex -15 0 0
      vertex -14.6722 3.11867 0
      vertex -14.6722 -3.11867 0
    endloop
  endfacet
  facet normal 0 0 -1
    outer loop
      vertex -14.6722 -3.11867 0
      vertex -14.6722 3.11867 0
      vertex -13.7032 6.10105 0
    endloop
  endfacet
  facet normal 0 0 -1
    outer loop
      vertex -14.6722 -3.11867 0
      vertex -13.7032 6.10105 0
      vertex -12.1353 8.81678 0
    endloop
  endfacet
  facet normal 0 0 -1
    outer loop
      vertex -14.6722 -3.11867 0
      vertex -12.1353 8.81678 0
      vertex -10.037 11.1472 0
    endloop
  endfacet
  facet normal 0 0 -1
    outer loop
      vertex -14.6722 -3.11867 0
      vertex -10.037 11.1472 0
      vertex -7.5 12.9904 0
    endloop
  endfacet
  facet normal 0 0 -1
    outer loop
      vertex -14.6722 -3.11867 0
      vertex -7.5 12.9904 0
      vertex -4.63525 14.2658 0
    endloop
  endfacet
  facet normal 0 0 -1
    outer loop
      vertex -14.6722 -3.11867 0
      vertex -4.63525 14.2658 0
      vertex -1.56793 14.9178 0
    endloop
  endfacet
  facet normal 0 0 -1
    outer loop
      vertex -14.6722 -3.11867 0
      vertex -1.56793 14.9178 0
      vertex 0 14.9178 0
    endloop
  endfacet
  facet normal 0 0 -1
    outer loop
      vertex 0 14.9178 0
      vertex 0 15 0
      vertex 62 15 0
    endloop
  endfacet
  facet normal 0 0 -1
    outer loop
      vertex 55 -10 0
      vertex 62 15 0
      vertex 62 -15 0
    endloop
  endfacet
  facet normal 0 0 -1
    outer loop
      vertex 0 -14.9178 0
      vertex 62 -15 0
      vertex 0 -15 0
    endloop
  endfacet
  facet normal 0 0 -1
    outer loop
      vertex 15 -10 0
      vertex 62 -15 0
      vertex 0 -14.9178 0
    endloop
  endfacet
  facet normal 0 0 -1
    outer loop
      vertex 15 -10 0
      vertex -0.497817 -4.73641 0
      vertex 1.47169 -4.52941 0
    endloop
  endfacet
  facet normal 0 0 -1
    outer loop
      vertex -4.65843 -0.990179 0
      vertex -14.6722 -3.11867 0
      vertex -4.65843 0.990179 0
    endloop
  endfacet
  facet normal 0 0 -1
    outer loop
      vertex -14.6722 -3.11867 0
      vertex -1.56793 -14.9178 0
      vertex -4.63525 -14.2658 0
    endloop
  endfacet
  facet normal 0 0 -1
    outer loop
      vertex -14.6722 -3.11867 0
      vertex -4.63525 -14.2658 0
      vertex -7.5 -12.9904 0
    endloop
  endfacet
  facet normal 0 0 -1
    outer loop
      vertex -14.6722 -3.11867 0
      vertex -7.5 -12.9904 0
      vertex -10.037 -11.1472 0
    endloop
  endfacet
  facet normal 0 0 -1
    outer loop
      vertex -14.6722 -3.11867 0
      vertex -10.037 -11.1472 0
      vertex -12.1353 -8.81678 0
    endloop
  endfacet
  facet normal 0 0 -1
    outer loop
      vertex -14.6722 -3.11867 0
      vertex -12.1353 -8.81678 0
      vertex -13.7032 -6.10105 0
    endloop
  endfacet
  facet normal 0 0 -1
    outer loop
      vertex 15 10 0
      vertex 62 15 0
      vertex 55 10 0
    endloop
  endfacet
  facet normal 0 0 -1
    outer loop
      vertex 0 14.9178 0
      vertex -4.65843 0.990179 0
      vertex -14.6722 -3.11867 0
    endloop
  endfacet
  facet normal 0 0 -1
    outer loop
      vertex -14.6722 -3.11867 0
      vertex -4.65843 -0.990179 0
      vertex -3.85294 -2.79933 0
    endloop
  endfacet
  facet normal 0 0 -1
    outer loop
      vertex -14.6722 -3.11867 0
      vertex -3.85294 -2.79933 0
      vertex -2.38125 -4.12445 0
    endloop
  endfacet
  facet normal 0 0 -1
    outer loop
      vertex -14.6722 -3.11867 0
      vertex -2.38125 -4.12445 0
      vertex -0.497817 -4.73641 0
    endloop
  endfacet
  facet normal 0 0 -1
    outer loop
      vertex 15 -10 0
      vertex 3.18673 -3.53923 0
      vertex 4.35076 -1.93708 0
    endloop
  endfacet
  facet normal 0 0 -1
    outer loop
      vertex 15 -10 0
      vertex 1.47169 -4.52941 0
      vertex 3.18673 -3.53923 0
    endloop
  endfacet
  facet normal 0 0 -1
    outer loop
      vertex 15 -10 0
      vertex -14.6722 -3.11867 0
      vertex -0.497817 -4.73641 0
    endloop
  endfacet
  facet normal 0 0 -1
    outer loop
      vertex 0 14.9178 0
      vertex 3.18673 3.53923 0
      vertex 1.47169 4.52941 0
    endloop
  endfacet
  facet normal 0 0 -1
    outer loop
      vertex 0 14.9178 0
      vertex 1.47169 4.52941 0
      vertex -0.497817 4.73641 0
    endloop
  endfacet
  facet normal 0 0 -1
    outer loop
      vertex 0 14.9178 0
      vertex -0.497817 4.73641 0
      vertex -2.38125 4.12445 0
    endloop
  endfacet
  facet normal 0 0 -1
    outer loop
      vertex 0 14.9178 0
      vertex -2.38125 4.12445 0
      vertex -3.85294 2.79933 0
    endloop
  endfacet
  facet normal 0 0 -1
    outer loop
      vertex 0 14.9178 0
      vertex -3.85294 2.79933 0
      vertex -4.65843 0.990179 0
    endloop
  endfacet
  facet normal 0 0 -1
    outer loop
      vertex 0 14.9178 0
      vertex 62 15 0
      vertex 15 10 0
    endloop
  endfacet
  facet normal 0 0 -1
    outer loop
      vertex 0 14.9178 0
      vertex 15 10 0
      vertex 3.18673 3.53923 0
    endloop
  endfacet
  facet normal 0 0 -1
    outer loop
      vertex 55 -10 0
      vertex 62 -15 0
      vertex 15 -10 0
    endloop
  endfacet
  facet normal 0 0 -1
    outer loop
      vertex -14.6722 -3.11867 0
      vertex 15 -10 0
      vertex 0 -14.9178 0
    endloop
  endfacet
  facet normal 0 0 -1
    outer loop
      vertex 55 10 0
      vertex 62 15 0
      vertex 55 -10 0
    endloop
  endfacet
  facet normal 0 0 -1
    outer loop
      vertex 15 -10 0
      vertex 4.35076 -1.93708 0
      vertex 4.7625 0 0
    endloop
  endfacet
  facet normal 0 0 -1
    outer loop
      vertex -1.56793 -14.9178 0
      vertex -14.6722 -3.11867 0
      vertex 0 -14.9178 0
    endloop
  endfacet
  facet normal 0 0 -1
    outer loop
      vertex 15 -10 0
      vertex 4.7625 0 0
      vertex 4.35076 1.93708 0
    endloop
  endfacet
  facet normal 0 0 -1
    outer loop
      vertex 15 -10 0
      vertex 4.35076 1.93708 0
      vertex 3.18673 3.53923 0
    endloop
  endfacet
  facet normal 0 0 -1
    outer loop
      vertex 15 -10 0
      vertex 3.18673 3.53923 0
      vertex 15 10 0
    endloop
  endfacet
  facet normal -0.994522 0.104528 0
    outer loop
      vertex -15 0 0
      vertex -15 0 20
      vertex -14.6722 3.11867 0
    endloop
  endfacet
  facet normal -0.994522 0.104528 0
    outer loop
      vertex -14.6722 3.11867 0
      vertex -15 0 20
      vertex -14.6722 3.11867 20
    endloop
  endfacet
  facet normal -0.994522 -0.104528 0
    outer loop
      vertex -15 0 0
      vertex -14.6722 -3.11867 0
      vertex -15 0 20
    endloop
  endfacet
  facet normal -0.994522 -0.104528 0
    outer loop
      vertex -15 0 20
      vertex -14.6722 -3.11867 0
      vertex -14.6722 -3.11867 20
    endloop
  endfacet
  facet normal -0.951057 -0.309017 0
    outer loop
      vertex -14.6722 -3.11867 0
      vertex -13.7032 -6.10105 0
      vertex -14.6722 -3.11867 20
    endloop
  endfacet
  facet normal -0.951057 -0.309017 0
    outer loop
      vertex -14.6722 -3.11867 20
      vertex -13.7032 -6.10105 0
      vertex -13.7032 -6.10105 20
    endloop
  endfacet
  facet normal -0.866025 -0.5 0
    outer loop
      vertex -13.7032 -6.10105 0
      vertex -12.1353 -8.81678 0
      vertex -13.7032 -6.10105 20
    endloop
  endfacet
  facet normal -0.866025 -0.5 0
    outer loop
      vertex -13.7032 -6.10105 20
      vertex -12.1353 -8.81678 0
      vertex -12.1353 -8.81678 20
    endloop
  endfacet
  facet normal -0.743145 -0.669131 0
    outer loop
      vertex -12.1353 -8.81678 0
      vertex -10.037 -11.1472 0
      vertex -12.1353 -8.81678 20
    endloop
  endfacet
  facet normal -0.743145 -0.669131 0
    outer loop
      vertex -12.1353 -8.81678 20
      vertex -10.037 -11.1472 0
      vertex -10.037 -11.1472 20
    endloop
  endfacet
  facet normal -0.587785 -0.809017 0
    outer loop
      vertex -10.037 -11.1472 20
      vertex -10.037 -11.1472 0
      vertex -7.5 -12.9904 0
    endloop
  endfacet
  facet normal -0.587785 -0.809017 0
    outer loop
      vertex -7.5 -12.9904 20
      vertex -10.037 -11.1472 20
      vertex -7.5 -12.9904 0
    endloop
  endfacet
  facet normal -0.406737 -0.913545 0
    outer loop
      vertex -7.5 -12.9904 20
      vertex -7.5 -12.9904 0
      vertex -4.63525 -14.2658 0
    endloop
  endfacet
  facet normal -0.406737 -0.913545 0
    outer loop
      vertex -4.63525 -14.2658 20
      vertex -7.5 -12.9904 20
      vertex -4.63525 -14.2658 0
    endloop
  endfacet
  facet normal -0.207911 -0.978148 0
    outer loop
      vertex -4.63525 -14.2658 20
      vertex -4.63525 -14.2658 0
      vertex -1.56793 -14.9178 0
    endloop
  endfacet
  facet normal -0.207911 -0.978148 0
    outer loop
      vertex -1.56793 -14.9178 20
      vertex -4.63525 -14.2658 20
      vertex -1.56793 -14.9178 0
    endloop
  endfacet
  facet normal 0 -1 0
    outer loop
      vertex -1.56793 -14.9178 20
      vertex -1.56793 -14.9178 0
      vertex 0 -14.9178 0
    endloop
  endfacet
  facet normal 0 -1 0
    outer loop
      vertex 0 -14.9178 20
      vertex -1.56793 -14.9178 20
      vertex 0 -14.9178 0
    endloop
  endfacet
  facet normal -1 0 0
    outer loop
      vertex 0 -15 0
      vertex 0 -15 20
      vertex 0 -14.9178 0
    endloop
  endfacet
  facet normal -1 0 0
    outer loop
      vertex 0 -14.9178 0
      vertex 0 -15 20
      vertex 0 -14.9178 20
    endloop
  endfacet
  facet normal 0 -1 0
    outer loop
      vertex 0 -15 20
      vertex 0 -15 0
      vertex 62 -15 0
    endloop
  endfacet
  facet normal 0 -1 0
    outer loop
      vertex 33.704 -15 20
      vertex 0 -15 20
      vertex 62 -15 0
    endloop
  endfacet
  facet normal 0 -1 0
    outer loop
      vertex 62 -15 40
      vertex 59.641 -15 39
      vertex 62 -15 0
    endloop
  endfacet
  facet normal 0 -1 0
    outer loop
      vertex 59.641 -15 39
      vertex 54.7258 -15 32.2348
      vertex 62 -15 0
    endloop
  endfacet
  facet normal 0 -1 0
    outer loop
      vertex 54.7258 -15 32.2348
      vertex 48.5114 -15 26.6393
      vertex 62 -15 0
    endloop
  endfacet
  facet normal 0 -1 0
    outer loop
      vertex 48.5114 -15 26.6393
      vertex 41.2695 -15 22.4582
      vertex 62 -15 0
    endloop
  endfacet
  facet normal 0 -1 0
    outer loop
      vertex 41.2695 -15 22.4582
      vertex 33.704 -15 20
      vertex 62 -15 0
    endloop
  endfacet
  facet normal 0 -1 0
    outer loop
      vertex 60.0862 -15 40
      vertex 59.641 -15 39
      vertex 62 -15 40
    endloop
  endfacet
  facet normal 1 0 0
    outer loop
      vertex 62 0 7
      vertex 62 -15 0
      vertex 62 15 0
    endloop
  endfacet
  facet normal 1 0 0
    outer loop
      vertex 62 -1.76336 22.5729
      vertex 62 -15 40
      vertex 62 15 0
    endloop
  endfacet
  facet normal 1 0 0
    outer loop
      vertex 62 -1.76336 27.4271
      vertex 62 0 28
      vertex 62 15 40
    endloop
  endfacet
  facet normal 1 0 0
    outer loop
      vertex 62 -15 40
      vertex 62 -15 0
      vertex 62 -2.85317 9.07295
    endloop
  endfacet
  facet normal 1 0 0
    outer loop
      vertex 62 1.76336 7.57295
      vertex 62 0 7
      vertex 62 15 0
    endloop
  endfacet
  facet normal 1 0 0
    outer loop
      vertex 62 -15 40
      vertex 62 -2.85317 9.07295
      vertex 62 -2.85317 10.9271
    endloop
  endfacet
  facet normal 1 0 0
    outer loop
      vertex 62 -15 40
      vertex 62 -2.85317 10.9271
      vertex 62 -1.76336 12.4271
    endloop
  endfacet
  facet normal 1 0 0
    outer loop
      vertex 62 -15 40
      vertex 62 -1.76336 12.4271
      vertex 62 0 13
    endloop
  endfacet
  facet normal 1 0 0
    outer loop
      vertex 62 -15 40
      vertex 62 1.76336 12.4271
      vertex 62 15 0
    endloop
  endfacet
  facet normal 1 0 0
    outer loop
      vertex 62 -15 40
      vertex 62 0 13
      vertex 62 1.76336 12.4271
    endloop
  endfacet
  facet normal 1 0 0
    outer loop
      vertex 62 1.76336 12.4271
      vertex 62 2.85317 10.9271
      vertex 62 15 0
    endloop
  endfacet
  facet normal 1 0 0
    outer loop
      vertex 62 -1.76336 7.57295
      vertex 62 -15 0
      vertex 62 0 7
    endloop
  endfacet
  facet normal 1 0 0
    outer loop
      vertex 62 -2.85317 9.07295
      vertex 62 -15 0
      vertex 62 -1.76336 7.57295
    endloop
  endfacet
  facet normal 1 0 0
    outer loop
      vertex 62 -2.85317 25.9271
      vertex 62 -15 40
      vertex 62 -2.85317 24.0729
    endloop
  endfacet
  facet normal 1 0 0
    outer loop
      vertex 62 -1.76336 27.4271
      vertex 62 -15 40
      vertex 62 -2.85317 25.9271
    endloop
  endfacet
  facet normal 1 0 0
    outer loop
      vertex 62 0 28
      vertex 62 1.76336 27.4271
      vertex 62 15 40
    endloop
  endfacet
  facet normal 1 0 0
    outer loop
      vertex 62 15 40
      vertex 62 -15 40
      vertex 62 -1.76336 27.4271
    endloop
  endfacet
  facet normal 1 0 0
    outer loop
      vertex 62 2.85317 25.9271
      vertex 62 2.85317 24.0729
      vertex 62 15 0
    endloop
  endfacet
  facet normal 1 0 0
    outer loop
      vertex 62 0 22
      vertex 62 -1.76336 22.5729
      vertex 62 15 0
    endloop
  endfacet
  facet normal 1 0 0
    outer loop
      vertex 62 15 40
      vertex 62 2.85317 25.9271
      vertex 62 15 0
    endloop
  endfacet
  facet normal 1 0 0
    outer loop
      vertex 62 15 40
      vertex 62 1.76336 27.4271
      vertex 62 2.85317 25.9271
    endloop
  endfacet
  facet normal 1 0 0
    outer loop
      vertex 62 2.85317 24.0729
      vertex 62 1.76336 22.5729
      vertex 62 15 0
    endloop
  endfacet
  facet normal 1 0 0
    outer loop
      vertex 62 1.76336 22.5729
      vertex 62 0 22
      vertex 62 15 0
    endloop
  endfacet
  facet normal 1 0 0
    outer loop
      vertex 62 -2.85317 24.0729
      vertex 62 -15 40
      vertex 62 -1.76336 22.5729
    endloop
  endfacet
  facet normal 1 0 0
    outer loop
      vertex 62 2.85317 10.9271
      vertex 62 2.85317 9.07295
      vertex 62 15 0
    endloop
  endfacet
  facet normal 1 0 0
    outer loop
      vertex 62 2.85317 9.07295
      vertex 62 1.76336 7.57295
      vertex 62 15 0
    endloop
  endfacet
  facet normal 0 1 0
    outer loop
      vertex 0 15 0
      vertex 0 15 20
      vertex 62 15 0
    endloop
  endfacet
  facet normal 0 1 0
    outer loop
      vertex 62 15 0
      vertex 0 15 20
      vertex 33.704 15 20
    endloop
  endfacet
  facet normal 0 1 0
    outer loop
      vertex 62 15 0
      vertex 33.704 15 20
      vertex 41.2695 15 22.4582
    endloop
  endfacet
  facet normal 0 1 0
    outer loop
      vertex 41.2695 15 22.4582
      vertex 48.5114 15 26.6393
      vertex 62 15 0
    endloop
  endfacet
  facet normal 0 1 0
    outer loop
      vertex 48.5114 15 26.6393
      vertex 54.7258 15 32.2348
      vertex 62 15 0
    endloop
  endfacet
  facet normal 0 1 0
    outer loop
      vertex 54.7258 15 32.2348
      vertex 59.641 15 39
      vertex 62 15 0
    endloop
  endfacet
  facet normal 0 1 0
    outer loop
      vertex 59.641 15 39
      vertex 60.0862 15 40
      vertex 62 15 0
    endloop
  endfacet
  facet normal 0 1 0
    outer loop
      vertex 62 15 0
      vertex 60.0862 15 40
      vertex 62 15 40
    endloop
  endfacet
  facet normal -1 0 0
    outer loop
      vertex 0 14.9178 0
      vertex 0 14.9178 20
      vertex 0 15 0
    endloop
  endfacet
  facet normal -1 0 0
    outer loop
      vertex 0 15 0
      vertex 0 14.9178 20
      vertex 0 15 20
    endloop
  endfacet
  facet normal 0 1 0
    outer loop
      vertex -1.56793 14.9178 0
      vertex -1.56793 14.9178 20
      vertex 0 14.9178 0
    endloop
  endfacet
  facet normal 0 1 0
    outer loop
      vertex 0 14.9178 0
      vertex -1.56793 14.9178 20
      vertex 0 14.9178 20
    endloop
  endfacet
  facet normal -0.207911 0.978148 0
    outer loop
      vertex -4.63525 14.2658 0
      vertex -4.63525 14.2658 20
      vertex -1.56793 14.9178 0
    endloop
  endfacet
  facet normal -0.207911 0.978148 0
    outer loop
      vertex -1.56793 14.9178 0
      vertex -4.63525 14.2658 20
      vertex -1.56793 14.9178 20
    endloop
  endfacet
  facet normal -0.406737 0.913545 0
    outer loop
      vertex -7.5 12.9904 0
      vertex -7.5 12.9904 20
      vertex -4.63525 14.2658 0
    endloop
  endfacet
  facet normal -0.406737 0.913545 0
    outer loop
      vertex -4.63525 14.2658 0
      vertex -7.5 12.9904 20
      vertex -4.63525 14.2658 20
    endloop
  endfacet
  facet normal -0.587785 0.809017 0
    outer loop
      vertex -10.037 11.1472 0
      vertex -10.037 11.1472 20
      vertex -7.5 12.9904 0
    endloop
  endfacet
  facet normal -0.587785 0.809017 0
    outer loop
      vertex -7.5 12.9904 0
      vertex -10.037 11.1472 20
      vertex -7.5 12.9904 20
    endloop
  endfacet
  facet normal -0.743145 0.669131 0
    outer loop
      vertex -12.1353 8.81678 0
      vertex -12.1353 8.81678 20
      vertex -10.037 11.1472 0
    endloop
  endfacet
  facet normal -0.743145 0.669131 0
    outer loop
      vertex -10.037 11.1472 0
      vertex -12.1353 8.81678 20
      vertex -10.037 11.1472 20
    endloop
  endfacet
  facet normal -0.866025 0.5 0
    outer loop
      vertex -13.7032 6.10105 0
      vertex -13.7032 6.10105 20
      vertex -12.1353 8.81678 0
    endloop
  endfacet
  facet normal -0.866025 0.5 0
    outer loop
      vertex -12.1353 8.81678 0
      vertex -13.7032 6.10105 20
      vertex -12.1353 8.81678 20
    endloop
  endfacet
  facet normal -0.951057 0.309017 0
    outer loop
      vertex -14.6722 3.11867 0
      vertex -14.6722 3.11867 20
      vertex -13.7032 6.10105 0
    endloop
  endfacet
  facet normal -0.951057 0.309017 0
    outer loop
      vertex -13.7032 6.10105 0
      vertex -14.6722 3.11867 20
      vertex -13.7032 6.10105 20
    endloop
  endfacet
  facet normal 0.913545 -0.406737 0
    outer loop
      vertex -3.85294 2.79933 0
      vertex -3.85294 2.79933 20
      vertex -4.65843 0.990179 20
    endloop
  endfacet
  facet normal 0.913545 -0.406737 0
    outer loop
      vertex -4.65843 0.990179 0
      vertex -3.85294 2.79933 0
      vertex -4.65843 0.990179 20
    endloop
  endfacet
  facet normal 1 0 0
    outer loop
      vertex -4.65843 0.990179 0
      vertex -4.65843 0.990179 20
      vertex -4.65843 -0.990179 20
    endloop
  endfacet
  facet normal 1 0 0
    outer loop
      vertex -4.65843 -0.990179 0
      vertex -4.65843 0.990179 0
      vertex -4.65843 -0.990179 20
    endloop
  endfacet
  facet normal 0.669131 -0.743145 0
    outer loop
      vertex -2.38125 4.12445 0
      vertex -2.38125 4.12445 20
      vertex -3.85294 2.79933 20
    endloop
  endfacet
  facet normal 0.669131 -0.743145 0
    outer loop
      vertex -3.85294 2.79933 0
      vertex -2.38125 4.12445 0
      vertex -3.85294 2.79933 20
    endloop
  endfacet
  facet normal 0.309017 -0.951056 0
    outer loop
      vertex -0.497817 4.73641 0
      vertex -0.497817 4.73641 20
      vertex -2.38125 4.12445 20
    endloop
  endfacet
  facet normal 0.309017 -0.951056 0
    outer loop
      vertex -2.38125 4.12445 0
      vertex -0.497817 4.73641 0
      vertex -2.38125 4.12445 20
    endloop
  endfacet
  facet normal -0.104529 -0.994522 0
    outer loop
      vertex 1.47169 4.52941 0
      vertex 1.47169 4.52941 20
      vertex -0.497817 4.73641 20
    endloop
  endfacet
  facet normal -0.104529 -0.994522 0
    outer loop
      vertex -0.497817 4.73641 0
      vertex 1.47169 4.52941 0
      vertex -0.497817 4.73641 20
    endloop
  endfacet
  facet normal -0.5 -0.866025 0
    outer loop
      vertex 3.18673 3.53923 0
      vertex 3.18673 3.53923 20
      vertex 1.47169 4.52941 20
    endloop
  endfacet
  facet normal -0.5 -0.866025 0
    outer loop
      vertex 1.47169 4.52941 0
      vertex 3.18673 3.53923 0
      vertex 1.47169 4.52941 20
    endloop
  endfacet
  facet normal -0.809017 -0.587785 0
    outer loop
      vertex 4.35076 1.93708 20
      vertex 3.18673 3.53923 20
      vertex 4.35076 1.93708 0
    endloop
  endfacet
  facet normal -0.809017 -0.587785 0
    outer loop
      vertex 4.35076 1.93708 0
      vertex 3.18673 3.53923 20
      vertex 3.18673 3.53923 0
    endloop
  endfacet
  facet normal -0.978148 -0.207912 0
    outer loop
      vertex 4.7625 0 20
      vertex 4.35076 1.93708 20
      vertex 4.7625 0 0
    endloop
  endfacet
  facet normal -0.978148 -0.207912 0
    outer loop
      vertex 4.7625 0 0
      vertex 4.35076 1.93708 20
      vertex 4.35076 1.93708 0
    endloop
  endfacet
  facet normal -0.978148 0.207912 0
    outer loop
      vertex 4.7625 0 20
      vertex 4.7625 0 0
      vertex 4.35076 -1.93708 20
    endloop
  endfacet
  facet normal -0.978148 0.207912 0
    outer loop
      vertex 4.35076 -1.93708 20
      vertex 4.7625 0 0
      vertex 4.35076 -1.93708 0
    endloop
  endfacet
  facet normal -0.809017 0.587785 0
    outer loop
      vertex 4.35076 -1.93708 20
      vertex 4.35076 -1.93708 0
      vertex 3.18673 -3.53923 20
    endloop
  endfacet
  facet normal -0.809017 0.587785 0
    outer loop
      vertex 3.18673 -3.53923 20
      vertex 4.35076 -1.93708 0
      vertex 3.18673 -3.53923 0
    endloop
  endfacet
  facet normal -0.5 0.866025 0
    outer loop
      vertex 3.18673 -3.53923 20
      vertex 3.18673 -3.53923 0
      vertex 1.47169 -4.52941 20
    endloop
  endfacet
  facet normal -0.5 0.866025 0
    outer loop
      vertex 1.47169 -4.52941 20
      vertex 3.18673 -3.53923 0
      vertex 1.47169 -4.52941 0
    endloop
  endfacet
  facet normal -0.104529 0.994522 0
    outer loop
      vertex 1.47169 -4.52941 20
      vertex 1.47169 -4.52941 0
      vertex -0.497817 -4.73641 20
    endloop
  endfacet
  facet normal -0.104529 0.994522 0
    outer loop
      vertex -0.497817 -4.73641 20
      vertex 1.47169 -4.52941 0
      vertex -0.497817 -4.73641 0
    endloop
  endfacet
  facet normal 0.309017 0.951056 0
    outer loop
      vertex -0.497817 -4.73641 20
      vertex -0.497817 -4.73641 0
      vertex -2.38125 -4.12445 20
    endloop
  endfacet
  facet normal 0.309017 0.951056 0
    outer loop
      vertex -2.38125 -4.12445 20
      vertex -0.497817 -4.73641 0
      vertex -2.38125 -4.12445 0
    endloop
  endfacet
  facet normal 0.669131 0.743145 0
    outer loop
      vertex -2.38125 -4.12445 20
      vertex -2.38125 -4.12445 0
      vertex -3.85294 -2.79933 20
    endloop
  endfacet
  facet normal 0.669131 0.743145 0
    outer loop
      vertex -3.85294 -2.79933 20
      vertex -2.38125 -4.12445 0
      vertex -3.85294 -2.79933 0
    endloop
  endfacet
  facet normal 0.913545 0.406737 0
    outer loop
      vertex -4.65843 -0.990179 20
      vertex -3.85294 -2.79933 20
      vertex -3.85294 -2.79933 0
    endloop
  endfacet
  facet normal 0.913545 0.406737 0
    outer loop
      vertex -4.65843 -0.990179 0
      vertex -4.65843 -0.990179 20
      vertex -3.85294 -2.79933 0
    endloop
  endfacet
  facet normal 1 0 0
    outer loop
      vertex 15 10 0
      vertex 15 10 20
      vertex 15 -10 20
    endloop
  endfacet
  facet normal 1 0 0
    outer loop
      vertex 15 -10 0
      vertex 15 10 0
      vertex 15 -10 20
    endloop
  endfacet
  facet normal 0 -1 0
    outer loop
      vertex 41.2695 10 22.4582
      vertex 33.704 10 20
      vertex 55 10 0
    endloop
  endfacet
  facet normal 0 -1 0
    outer loop
      vertex 55 10 0
      vertex 55 10 32.6122
      vertex 54.7258 10 32.2348
    endloop
  endfacet
  facet normal 0 -1 0
    outer loop
      vertex 33.704 10 20
      vertex 15 10 20
      vertex 55 10 0
    endloop
  endfacet
  facet normal 0 -1 0
    outer loop
      vertex 48.5114 10 26.6393
      vertex 55 10 0
      vertex 54.7258 10 32.2348
    endloop
  endfacet
  facet normal 0 -1 0
    outer loop
      vertex 48.5114 10 26.6393
      vertex 41.2695 10 22.4582
      vertex 55 10 0
    endloop
  endfacet
  facet normal 0 -1 0
    outer loop
      vertex 15 10 20
      vertex 15 10 0
      vertex 55 10 0
    endloop
  endfacet
  facet normal -1 0 0
    outer loop
      vertex 55 -2.85317 24.0729
      vertex 55 10 0
      vertex 55 -10 32.6122
    endloop
  endfacet
  facet normal -1 0 0
    outer loop
      vertex 55 -1.76336 7.57295
      vertex 55 10 0
      vertex 55 -10 0
    endloop
  endfacet
  facet normal -1 0 0
    outer loop
      vertex 55 0 13
      vertex 55 -10 32.6122
      vertex 55 1.76336 12.4271
    endloop
  endfacet
  facet normal -1 0 0
    outer loop
      vertex 55 -10 32.6122
      vertex 55 -2.85317 9.07295
      vertex 55 -10 0
    endloop
  endfacet
  facet normal -1 0 0
    outer loop
      vertex 55 0 7
      vertex 55 10 0
      vertex 55 -1.76336 7.57295
    endloop
  endfacet
  facet normal -1 0 0
    outer loop
      vertex 55 -2.85317 9.07295
      vertex 55 -1.76336 7.57295
      vertex 55 -10 0
    endloop
  endfacet
  facet normal -1 0 0
    outer loop
      vertex 55 2.85317 9.07295
      vertex 55 10 0
      vertex 55 1.76336 7.57295
    endloop
  endfacet
  facet normal -1 0 0
    outer loop
      vertex 55 2.85317 10.9271
      vertex 55 10 0
      vertex 55 2.85317 9.07295
    endloop
  endfacet
  facet normal -1 0 0
    outer loop
      vertex 55 -10 32.6122
      vertex 55 10 0
      vertex 55 2.85317 10.9271
    endloop
  endfacet
  facet normal -1 0 0
    outer loop
      vertex 55 -10 32.6122
      vertex 55 2.85317 10.9271
      vertex 55 1.76336 12.4271
    endloop
  endfacet
  facet normal -1 0 0
    outer loop
      vertex 55 -1.76336 12.4271
      vertex 55 -10 32.6122
      vertex 55 0 13
    endloop
  endfacet
  facet normal -1 0 0
    outer loop
      vertex 55 2.85317 25.9271
      vertex 55 10 32.6122
      vertex 55 2.85317 24.0729
    endloop
  endfacet
  facet normal -1 0 0
    outer loop
      vertex 55 -10 32.6122
      vertex 55 -1.76336 12.4271
      vertex 55 -2.85317 10.9271
    endloop
  endfacet
  facet normal -1 0 0
    outer loop
      vertex 55 -10 32.6122
      vertex 55 -2.85317 10.9271
      vertex 55 -2.85317 9.07295
    endloop
  endfacet
  facet normal -1 0 0
    outer loop
      vertex 55 -1.76336 22.5729
      vertex 55 10 0
      vertex 55 -2.85317 24.0729
    endloop
  endfacet
  facet normal -1 0 0
    outer loop
      vertex 55 -2.85317 25.9271
      vertex 55 -2.85317 24.0729
      vertex 55 -10 32.6122
    endloop
  endfacet
  facet normal -1 0 0
    outer loop
      vertex 55 0 22
      vertex 55 10 0
      vertex 55 -1.76336 22.5729
    endloop
  endfacet
  facet normal -1 0 0
    outer loop
      vertex 55 1.76336 22.5729
      vertex 55 10 0
      vertex 55 0 22
    endloop
  endfacet
  facet normal -1 0 0
    outer loop
      vertex 55 10 32.6122
      vertex 55 10 0
      vertex 55 1.76336 22.5729
    endloop
  endfacet
  facet normal -1 0 0
    outer loop
      vertex 55 10 32.6122
      vertex 55 1.76336 22.5729
      vertex 55 2.85317 24.0729
    endloop
  endfacet
  facet normal -1 0 0
    outer loop
      vertex 55 1.76336 27.4271
      vertex 55 10 32.6122
      vertex 55 2.85317 25.9271
    endloop
  endfacet
  facet normal -1 0 0
    outer loop
      vertex 55 10 32.6122
      vertex 55 1.76336 27.4271
      vertex 55 -10 32.6122
    endloop
  endfacet
  facet normal -1 0 0
    outer loop
      vertex 55 1.76336 27.4271
      vertex 55 0 28
      vertex 55 -10 32.6122
    endloop
  endfacet
  facet normal -1 0 0
    outer loop
      vertex 55 0 28
      vertex 55 -1.76336 27.4271
      vertex 55 -10 32.6122
    endloop
  endfacet
  facet normal -1 0 0
    outer loop
      vertex 55 -1.76336 27.4271
      vertex 55 -2.85317 25.9271
      vertex 55 -10 32.6122
    endloop
  endfacet
  facet normal -1 0 0
    outer loop
      vertex 55 1.76336 7.57295
      vertex 55 10 0
      vertex 55 0 7
    endloop
  endfacet
  facet normal 0 1 0
    outer loop
      vertex 33.704 -10 20
      vertex 55 -10 0
      vertex 15 -10 20
    endloop
  endfacet
  facet normal 0 1 0
    outer loop
      vertex 33.704 -10 20
      vertex 41.2695 -10 22.4582
      vertex 55 -10 0
    endloop
  endfacet
  facet normal 0 1 0
    outer loop
      vertex 55 -10 0
      vertex 48.5114 -10 26.6393
      vertex 54.7258 -10 32.2348
    endloop
  endfacet
  facet normal 0 1 0
    outer loop
      vertex 55 -10 0
      vertex 54.7258 -10 32.2348
      vertex 55 -10 32.6122
    endloop
  endfacet
  facet normal 0 1 0
    outer loop
      vertex 41.2695 -10 22.4582
      vertex 48.5114 -10 26.6393
      vertex 55 -10 0
    endloop
  endfacet
  facet normal 0 1 0
    outer loop
      vertex 55 -10 0
      vertex 15 -10 0
      vertex 15 -10 20
    endloop
  endfacet
  facet normal 0 0 1
    outer loop
      vertex -14.6722 3.11867 20
      vertex -15 0 20
      vertex -14.6722 -3.11867 20
    endloop
  endfacet
  facet normal 0 0 1
    outer loop
      vertex -12.1353 -8.81678 20
      vertex -14.6722 3.11867 20
      vertex -13.7032 -6.10105 20
    endloop
  endfacet
  facet normal 0 0 1
    outer loop
      vertex -13.7032 -6.10105 20
      vertex -14.6722 3.11867 20
      vertex -14.6722 -3.11867 20
    endloop
  endfacet
  facet normal 0 0 1
    outer loop
      vertex -10.037 -11.1472 20
      vertex -14.6722 3.11867 20
      vertex -12.1353 -8.81678 20
    endloop
  endfacet
  facet normal 0 0 1
    outer loop
      vertex -7.5 -12.9904 20
      vertex -14.6722 3.11867 20
      vertex -10.037 -11.1472 20
    endloop
  endfacet
  facet normal 0 0 1
    outer loop
      vertex -4.63525 -14.2658 20
      vertex -14.6722 3.11867 20
      vertex -7.5 -12.9904 20
    endloop
  endfacet
  facet normal 0 0 1
    outer loop
      vertex -1.56793 -14.9178 20
      vertex -14.6722 3.11867 20
      vertex -4.63525 -14.2658 20
    endloop
  endfacet
  facet normal 0 0 1
    outer loop
      vertex 0 -14.9178 20
      vertex -14.6722 3.11867 20
      vertex -1.56793 -14.9178 20
    endloop
  endfacet
  facet normal 0 0 1
    outer loop
      vertex -2.38125 -4.12445 20
      vertex -14.6722 3.11867 20
      vertex 0 -14.9178 20
    endloop
  endfacet
  facet normal 0 0 1
    outer loop
      vertex 33.704 -15 20
      vertex 0 -14.9178 20
      vertex 0 -15 20
    endloop
  endfacet
  facet normal 0 0 1
    outer loop
      vertex 15 -10 20
      vertex 4.35076 -1.93708 20
      vertex 3.18673 -3.53923 20
    endloop
  endfacet
  facet normal 0 0 1
    outer loop
      vertex 33.704 -15 20
      vertex 15 -10 20
      vertex 0 -14.9178 20
    endloop
  endfacet
  facet normal 0 0 1
    outer loop
      vertex 33.704 15 20
      vertex -14.6722 3.11867 20
      vertex 15 10 20
    endloop
  endfacet
  facet normal 0 0 1
    outer loop
      vertex 33.704 15 20
      vertex 15 10 20
      vertex 33.704 10 20
    endloop
  endfacet
  facet normal 0 0 1
    outer loop
      vertex 0 14.9178 20
      vertex -14.6722 3.11867 20
      vertex 33.704 15 20
    endloop
  endfacet
  facet normal 0 0 1
    outer loop
      vertex 0 15 20
      vertex 0 14.9178 20
      vertex 33.704 15 20
    endloop
  endfacet
  facet normal 0 0 1
    outer loop
      vertex -4.63525 14.2658 20
      vertex -14.6722 3.11867 20
      vertex -1.56793 14.9178 20
    endloop
  endfacet
  facet normal 0 0 1
    outer loop
      vertex -7.5 12.9904 20
      vertex -14.6722 3.11867 20
      vertex -4.63525 14.2658 20
    endloop
  endfacet
  facet normal 0 0 1
    outer loop
      vertex -10.037 11.1472 20
      vertex -14.6722 3.11867 20
      vertex -7.5 12.9904 20
    endloop
  endfacet
  facet normal 0 0 1
    outer loop
      vertex -12.1353 8.81678 20
      vertex -14.6722 3.11867 20
      vertex -10.037 11.1472 20
    endloop
  endfacet
  facet normal 0 0 1
    outer loop
      vertex -13.7032 6.10105 20
      vertex -14.6722 3.11867 20
      vertex -12.1353 8.81678 20
    endloop
  endfacet
  facet normal 0 0 1
    outer loop
      vertex -0.497817 4.73641 20
      vertex 1.47169 4.52941 20
      vertex 15 10 20
    endloop
  endfacet
  facet normal 0 0 1
    outer loop
      vertex -3.85294 2.79933 20
      vertex -14.6722 3.11867 20
      vertex -4.65843 0.990179 20
    endloop
  endfacet
  facet normal 0 0 1
    outer loop
      vertex -2.38125 4.12445 20
      vertex -14.6722 3.11867 20
      vertex -3.85294 2.79933 20
    endloop
  endfacet
  facet normal 0 0 1
    outer loop
      vertex 15 10 20
      vertex -14.6722 3.11867 20
      vertex -2.38125 4.12445 20
    endloop
  endfacet
  facet normal 0 0 1
    outer loop
      vertex 1.47169 4.52941 20
      vertex 3.18673 3.53923 20
      vertex 15 10 20
    endloop
  endfacet
  facet normal 0 0 1
    outer loop
      vertex 15 10 20
      vertex -2.38125 4.12445 20
      vertex -0.497817 4.73641 20
    endloop
  endfacet
  facet normal 0 0 1
    outer loop
      vertex 3.18673 -3.53923 20
      vertex 1.47169 -4.52941 20
      vertex 15 -10 20
    endloop
  endfacet
  facet normal 0 0 1
    outer loop
      vertex 0 14.9178 20
      vertex -1.56793 14.9178 20
      vertex -14.6722 3.11867 20
    endloop
  endfacet
  facet normal 0 0 1
    outer loop
      vertex -3.85294 -2.79933 20
      vertex -4.65843 -0.990179 20
      vertex -14.6722 3.11867 20
    endloop
  endfacet
  facet normal 0 0 1
    outer loop
      vertex 15 -10 20
      vertex 1.47169 -4.52941 20
      vertex 0 -14.9178 20
    endloop
  endfacet
  facet normal 0 0 1
    outer loop
      vertex 1.47169 -4.52941 20
      vertex -0.497817 -4.73641 20
      vertex 0 -14.9178 20
    endloop
  endfacet
  facet normal 0 0 1
    outer loop
      vertex -0.497817 -4.73641 20
      vertex -2.38125 -4.12445 20
      vertex 0 -14.9178 20
    endloop
  endfacet
  facet normal 0 0 1
    outer loop
      vertex -4.65843 -0.990179 20
      vertex -4.65843 0.990179 20
      vertex -14.6722 3.11867 20
    endloop
  endfacet
  facet normal 0 0 1
    outer loop
      vertex -2.38125 -4.12445 20
      vertex -3.85294 -2.79933 20
      vertex -14.6722 3.11867 20
    endloop
  endfacet
  facet normal 0 0 1
    outer loop
      vertex 33.704 -10 20
      vertex 15 -10 20
      vertex 33.704 -15 20
    endloop
  endfacet
  facet normal 0 0 1
    outer loop
      vertex 15 -10 20
      vertex 4.7625 0 20
      vertex 4.35076 -1.93708 20
    endloop
  endfacet
  facet normal 0 0 1
    outer loop
      vertex 15 -10 20
      vertex 4.35076 1.93708 20
      vertex 4.7625 0 20
    endloop
  endfacet
  facet normal 0 0 1
    outer loop
      vertex 15 -10 20
      vertex 3.18673 3.53923 20
      vertex 4.35076 1.93708 20
    endloop
  endfacet
  facet normal 0 0 1
    outer loop
      vertex 15 -10 20
      vertex 15 10 20
      vertex 3.18673 3.53923 20
    endloop
  endfacet
  facet normal -0.309017 -6.86156e-17 0.951057
    outer loop
      vertex 33.704 -15 20
      vertex 41.2695 -15 22.4582
      vertex 41.2695 -10 22.4582
    endloop
  endfacet
  facet normal -0.309017 -6.86156e-17 0.951057
    outer loop
      vertex 33.704 -10 20
      vertex 33.704 -15 20
      vertex 41.2695 -10 22.4582
    endloop
  endfacet
  facet normal -0.5 -1.11022e-16 0.866025
    outer loop
      vertex 41.2695 -15 22.4582
      vertex 48.5114 -15 26.6393
      vertex 48.5114 -10 26.6393
    endloop
  endfacet
  facet normal -0.5 -1.11022e-16 0.866025
    outer loop
      vertex 41.2695 -10 22.4582
      vertex 41.2695 -15 22.4582
      vertex 48.5114 -10 26.6393
    endloop
  endfacet
  facet normal -0.669131 -1.48577e-16 0.743145
    outer loop
      vertex 48.5114 -15 26.6393
      vertex 54.7258 -15 32.2348
      vertex 54.7258 -10 32.2348
    endloop
  endfacet
  facet normal -0.669131 -1.48577e-16 0.743145
    outer loop
      vertex 48.5114 -10 26.6393
      vertex 48.5114 -15 26.6393
      vertex 54.7258 -10 32.2348
    endloop
  endfacet
  facet normal -0.809017 -1.79638e-16 0.587785
    outer loop
      vertex 54.7258 -15 32.2348
      vertex 55 -10 32.6122
      vertex 54.7258 -10 32.2348
    endloop
  endfacet
  facet normal -0.809017 -1.79638e-16 0.587785
    outer loop
      vertex 59.641 -15 39
      vertex 55 -10 32.6122
      vertex 54.7258 -15 32.2348
    endloop
  endfacet
  facet normal -0.809017 -1.79638e-16 0.587785
    outer loop
      vertex 55 10 32.6122
      vertex 55 -10 32.6122
      vertex 59.641 -15 39
    endloop
  endfacet
  facet normal -0.809017 -1.79638e-16 0.587785
    outer loop
      vertex 55 10 32.6122
      vertex 59.641 -15 39
      vertex 59.641 15 39
    endloop
  endfacet
  facet normal -0.809017 -1.79638e-16 0.587785
    outer loop
      vertex 55 10 32.6122
      vertex 59.641 15 39
      vertex 54.7258 10 32.2348
    endloop
  endfacet
  facet normal -0.809017 -1.79638e-16 0.587785
    outer loop
      vertex 59.641 15 39
      vertex 54.7258 15 32.2348
      vertex 54.7258 10 32.2348
    endloop
  endfacet
  facet normal -0.913545 -2.02848e-16 0.406737
    outer loop
      vertex 60.0862 -15 40
      vertex 60.0862 15 40
      vertex 59.641 -15 39
    endloop
  endfacet
  facet normal -0.913545 -2.02848e-16 0.406737
    outer loop
      vertex 59.641 -15 39
      vertex 60.0862 15 40
      vertex 59.641 15 39
    endloop
  endfacet
  facet normal 0 0 1
    outer loop
      vertex 62 15 40
      vertex 60.0862 15 40
      vertex 60.0862 -15 40
    endloop
  endfacet
  facet normal 0 0 1
    outer loop
      vertex 62 -15 40
      vertex 62 15 40
      vertex 60.0862 -15 40
    endloop
  endfacet
  facet normal 0 1 0
    outer loop
      vertex 62 -2.85317 10.9271
      vertex 62 -2.85317 9.07295
      vertex 55 -2.85317 10.9271
    endloop
  endfacet
  facet normal 0 1 0
    outer loop
      vertex 55 -2.85317 10.9271
      vertex 62 -2.85317 9.07295
      vertex 55 -2.85317 9.07295
    endloop
  endfacet
  facet normal -1.30515e-16 0.809017 0.587785
    outer loop
      vertex 62 -1.76336 7.57295
      vertex 55 -1.76336 7.57295
      vertex 62 -2.85317 9.07295
    endloop
  endfacet
  facet normal -1.30515e-16 0.809017 0.587785
    outer loop
      vertex 62 -2.85317 9.07295
      vertex 55 -1.76336 7.57295
      vertex 55 -2.85317 9.07295
    endloop
  endfacet
  facet normal -2.11177e-16 0.309017 0.951057
    outer loop
      vertex 62 -1.76336 7.57295
      vertex 62 0 7
      vertex 55 0 7
    endloop
  endfacet
  facet normal -2.11177e-16 0.309017 0.951057
    outer loop
      vertex 55 -1.76336 7.57295
      vertex 62 -1.76336 7.57295
      vertex 55 0 7
    endloop
  endfacet
  facet normal -2.11177e-16 -0.309017 0.951057
    outer loop
      vertex 62 0 7
      vertex 62 1.76336 7.57295
      vertex 55 1.76336 7.57295
    endloop
  endfacet
  facet normal -2.11177e-16 -0.309017 0.951057
    outer loop
      vertex 55 0 7
      vertex 62 0 7
      vertex 55 1.76336 7.57295
    endloop
  endfacet
  facet normal -1.30515e-16 -0.809017 0.587785
    outer loop
      vertex 62 1.76336 7.57295
      vertex 62 2.85317 9.07295
      vertex 55 2.85317 9.07295
    endloop
  endfacet
  facet normal -1.30515e-16 -0.809017 0.587785
    outer loop
      vertex 55 1.76336 7.57295
      vertex 62 1.76336 7.57295
      vertex 55 2.85317 9.07295
    endloop
  endfacet
  facet normal 0 -1 0
    outer loop
      vertex 62 2.85317 9.07295
      vertex 62 2.85317 10.9271
      vertex 55 2.85317 10.9271
    endloop
  endfacet
  facet normal 0 -1 0
    outer loop
      vertex 55 2.85317 9.07295
      vertex 62 2.85317 9.07295
      vertex 55 2.85317 10.9271
    endloop
  endfacet
  facet normal 1.30515e-16 -0.809017 -0.587785
    outer loop
      vertex 55 2.85317 10.9271
      vertex 62 2.85317 10.9271
      vertex 62 1.76336 12.4271
    endloop
  endfacet
  facet normal 1.30515e-16 -0.809017 -0.587785
    outer loop
      vertex 55 1.76336 12.4271
      vertex 55 2.85317 10.9271
      vertex 62 1.76336 12.4271
    endloop
  endfacet
  facet normal 2.11177e-16 -0.309017 -0.951057
    outer loop
      vertex 62 1.76336 12.4271
      vertex 62 0 13
      vertex 55 1.76336 12.4271
    endloop
  endfacet
  facet normal 2.11177e-16 -0.309017 -0.951057
    outer loop
      vertex 55 1.76336 12.4271
      vertex 62 0 13
      vertex 55 0 13
    endloop
  endfacet
  facet normal 2.11177e-16 0.309017 -0.951057
    outer loop
      vertex 62 0 13
      vertex 62 -1.76336 12.4271
      vertex 55 0 13
    endloop
  endfacet
  facet normal 2.11177e-16 0.309017 -0.951057
    outer loop
      vertex 55 0 13
      vertex 62 -1.76336 12.4271
      vertex 55 -1.76336 12.4271
    endloop
  endfacet
  facet normal 1.30515e-16 0.809017 -0.587785
    outer loop
      vertex 62 -1.76336 12.4271
      vertex 62 -2.85317 10.9271
      vertex 55 -1.76336 12.4271
    endloop
  endfacet
  facet normal 1.30515e-16 0.809017 -0.587785
    outer loop
      vertex 55 -1.76336 12.4271
      vertex 62 -2.85317 10.9271
      vertex 55 -2.85317 10.9271
    endloop
  endfacet
  facet normal -1.30515e-16 0.809017 0.587785
    outer loop
      vertex 62 -1.76336 22.5729
      vertex 55 -1.76336 22.5729
      vertex 62 -2.85317 24.0729
    endloop
  endfacet
  facet normal -1.30515e-16 0.809017 0.587785
    outer loop
      vertex 62 -2.85317 24.0729
      vertex 55 -1.76336 22.5729
      vertex 55 -2.85317 24.0729
    endloop
  endfacet
  facet normal 0 1 0
    outer loop
      vertex 62 -2.85317 25.9271
      vertex 62 -2.85317 24.0729
      vertex 55 -2.85317 25.9271
    endloop
  endfacet
  facet normal 0 1 0
    outer loop
      vertex 55 -2.85317 25.9271
      vertex 62 -2.85317 24.0729
      vertex 55 -2.85317 24.0729
    endloop
  endfacet
  facet normal -2.11177e-16 0.309017 0.951057
    outer loop
      vertex 62 -1.76336 22.5729
      vertex 62 0 22
      vertex 55 0 22
    endloop
  endfacet
  facet normal -2.11177e-16 0.309017 0.951057
    outer loop
      vertex 55 -1.76336 22.5729
      vertex 62 -1.76336 22.5729
      vertex 55 0 22
    endloop
  endfacet
  facet normal -2.11177e-16 -0.309017 0.951057
    outer loop
      vertex 62 0 22
      vertex 62 1.76336 22.5729
      vertex 55 1.76336 22.5729
    endloop
  endfacet
  facet normal -2.11177e-16 -0.309017 0.951057
    outer loop
      vertex 55 0 22
      vertex 62 0 22
      vertex 55 1.76336 22.5729
    endloop
  endfacet
  facet normal -1.30515e-16 -0.809017 0.587785
    outer loop
      vertex 62 1.76336 22.5729
      vertex 62 2.85317 24.0729
      vertex 55 2.85317 24.0729
    endloop
  endfacet
  facet normal -1.30515e-16 -0.809017 0.587785
    outer loop
      vertex 55 1.76336 22.5729
      vertex 62 1.76336 22.5729
      vertex 55 2.85317 24.0729
    endloop
  endfacet
  facet normal 0 -1 0
    outer loop
      vertex 62 2.85317 24.0729
      vertex 62 2.85317 25.9271
      vertex 55 2.85317 25.9271
    endloop
  endfacet
  facet normal 0 -1 0
    outer loop
      vertex 55 2.85317 24.0729
      vertex 62 2.85317 24.0729
      vertex 55 2.85317 25.9271
    endloop
  endfacet
  facet normal 1.30515e-16 -0.809017 -0.587785
    outer loop
      vertex 55 2.85317 25.9271
      vertex 62 2.85317 25.9271
      vertex 62 1.76336 27.4271
    endloop
  endfacet
  facet normal 1.30515e-16 -0.809017 -0.587785
    outer loop
      vertex 55 1.76336 27.4271
      vertex 55 2.85317 25.9271
      vertex 62 1.76336 27.4271
    endloop
  endfacet
  facet normal 2.11177e-16 -0.309017 -0.951057
    outer loop
      vertex 62 1.76336 27.4271
      vertex 62 0 28
      vertex 55 1.76336 27.4271
    endloop
  endfacet
  facet normal 2.11177e-16 -0.309017 -0.951057
    outer loop
      vertex 55 1.76336 27.4271
      vertex 62 0 28
      vertex 55 0 28
    endloop
  endfacet
  facet normal 2.11177e-16 0.309017 -0.951057
    outer loop
      vertex 62 0 28
      vertex 62 -1.76336 27.4271
      vertex 55 0 28
    endloop
  endfacet
  facet normal 2.11177e-16 0.309017 -0.951057
    outer loop
      vertex 55 0 28
      vertex 62 -1.76336 27.4271
      vertex 55 -1.76336 27.4271
    endloop
  endfacet
  facet normal 1.30515e-16 0.809017 -0.587785
    outer loop
      vertex 62 -1.76336 27.4271
      vertex 62 -2.85317 25.9271
      vertex 55 -1.76336 27.4271
    endloop
  endfacet
  facet normal 1.30515e-16 0.809017 -0.587785
    outer loop
      vertex 55 -1.76336 27.4271
      vertex 62 -2.85317 25.9271
      vertex 55 -2.85317 25.9271
    endloop
  endfacet
  facet normal -0.669131 -1.48577e-16 0.743145
    outer loop
      vertex 48.5114 10 26.6393
      vertex 54.7258 10 32.2348
      vertex 54.7258 15 32.2348
    endloop
  endfacet
  facet normal -0.669131 -1.48577e-16 0.743145
    outer loop
      vertex 48.5114 15 26.6393
      vertex 48.5114 10 26.6393
      vertex 54.7258 15 32.2348
    endloop
  endfacet
  facet normal -0.5 -1.11022e-16 0.866025
    outer loop
      vertex 41.2695 10 22.4582
      vertex 48.5114 10 26.6393
      vertex 48.5114 15 26.6393
    endloop
  endfacet
  facet normal -0.5 -1.11022e-16 0.866025
    outer loop
      vertex 41.2695 15 22.4582
      vertex 41.2695 10 22.4582
      vertex 48.5114 15 26.6393
    endloop
  endfacet
  facet normal -0.309017 -6.86156e-17 0.951057
    outer loop
      vertex 33.704 10 20
      vertex 41.2695 10 22.4582
      vertex 41.2695 15 22.4582
    endloop
  endfacet
  facet normal -0.309017 -6.86156e-17 0.951057
    outer loop
      vertex 33.704 15 20
      vertex 33.704 10 20
      vertex 41.2695 15 22.4582
    endloop
  endfacet
endsolid OpenSCAD_Model
