  0
SECTION
  2
HEADER
  9
$ACADVER
  1
AC1009
  9
$EXTMIN
 10
0.0
 20
0.0
 30
0.0
  9
$EXTMAX
 10
1000.0
 20
1000.0
 30
0.0
  9
$FILLMODE
 70
 0
  9
$SPLFRAME
 70
 1
  0
ENDSEC
  0
SECTION
  2
TABLES
  0
TABLE
  2
LAYER
 70
1
  0
LAYER
  2
0
 70
     0
 62
     7
  6
CONTINUOUS
  0
ENDTAB
  0
ENDSEC
  0
SECTION
  2
ENTITIES
  0
LINE
  8
0
 62
     0
 10
-0.0110243
 20
11.7574
 30
0.0
 11
31.0389
 21
52.983
 31
0.0
  0
LINE
  8
0
 62
     0
 10
31.0389
 20
52.983
 30
0.0
 11
35.2887
 21
52.983
 31
0.0
  0
LINE
  8
0
 62
     0
 10
35.2887
 20
52.983
 30
0.0
 11
85.4604
 21
111.93
 31
0.0
  0
LINE
  8
0
 62
     0
 10
85.4604
 20
111.93
 30
0.0
 11
8.64856
 21
111.93
 31
0.0
  0
LINE
  8
0
 62
     0
 10
8.64856
 20
111.93
 30
0.0
 11
8.64856
 21
115.805
 31
0.0
  0
LINE
  8
0
 62
     0
 10
8.64856
 20
115.805
 30
0.0
 11
92.8137
 21
115.805
 31
0.0
  0
LINE
  8
0
 62
     0
 10
92.8137
 20
115.805
 30
0.0
 11
92.8137
 21
112.503
 31
0.0
  0
LINE
  8
0
 62
     0
 10
92.8137
 20
112.503
 30
0.0
 11
41.5011
 21
53.0599
 31
0.0
  0
LINE
  8
0
 62
     0
 10
41.5011
 20
53.0599
 30
0.0
 11
47.2172
 21
53.0599
 31
0.0
  0
LINE
  8
0
 62
     0
 10
47.2172
 20
53.0599
 30
0.0
 11
16.6577
 21
11.6141
 31
0.0
  0
LINE
  8
0
 62
     0
 10
16.6577
 20
11.6141
 30
0.0
 11
71.0791
 21
11.6141
 31
0.0
  0
LINE
  8
0
 62
     0
 10
71.0791
 20
11.6141
 30
0.0
 11
71.0791
 21
8.09734
 31
0.0
  0
LINE
  8
0
 62
     0
 10
71.0791
 20
8.09734
 30
0.0
 11
95.7573
 21
8.09734
 31
0.0
  0
LINE
  8
0
 62
     0
 10
95.7573
 20
8.09734
 30
0.0
 11
95.7573
 21
3.52227
 31
0.0
  0
LINE
  8
0
 62
     0
 10
95.7573
 20
3.52227
 30
0.0
 11
71.0791
 21
3.52227
 31
0.0
  0
LINE
  8
0
 62
     0
 10
71.0791
 20
3.52227
 30
0.0
 11
71.0791
 21
-0
 31
0.0
  0
LINE
  8
0
 62
     0
 10
71.0791
 20
-0
 30
0.0
 11
-0.0110243
 21
-0
 31
0.0
  0
LINE
  8
0
 62
     0
 10
-0.0110243
 20
-0
 30
0.0
 11
-0.0110243
 21
11.7574
 31
0.0
  0
LINE
  8
0
 62
     0
 10
151.419
 20
49.9844
 30
0.0
 11
116.119
 21
49.9844
 31
0.0
  0
LINE
  8
0
 62
     0
 10
116.119
 20
49.9844
 30
0.0
 11
116.119
 21
12.6724
 31
0.0
  0
LINE
  8
0
 62
     0
 10
116.119
 20
12.6724
 30
0.0
 11
189.662
 21
12.6724
 31
0.0
  0
LINE
  8
0
 62
     0
 10
189.662
 20
12.6724
 30
0.0
 11
189.662
 21
-0
 31
0.0
  0
LINE
  8
0
 62
     0
 10
189.662
 20
-0
 30
0.0
 11
103.441
 21
-0
 31
0.0
  0
LINE
  8
0
 62
     0
 10
103.441
 20
-0
 30
0.0
 11
103.441
 21
82.5997
 31
0.0
  0
LINE
  8
0
 62
     0
 10
103.441
 20
82.5997
 30
0.0
 11
107.669
 21
82.5997
 31
0.0
  0
LINE
  8
0
 62
     0
 10
107.669
 20
82.5997
 30
0.0
 11
107.669
 21
115.805
 31
0.0
  0
LINE
  8
0
 62
     0
 10
107.669
 20
115.805
 30
0.0
 11
126.465
 21
115.805
 31
0.0
  0
LINE
  8
0
 62
     0
 10
126.465
 20
115.805
 30
0.0
 11
126.465
 21
111.93
 31
0.0
  0
LINE
  8
0
 62
     0
 10
126.465
 20
111.93
 30
0.0
 11
112.244
 21
111.93
 31
0.0
  0
LINE
  8
0
 62
     0
 10
112.244
 20
111.93
 30
0.0
 11
112.244
 21
82.8146
 31
0.0
  0
LINE
  8
0
 62
     0
 10
112.244
 20
82.8146
 30
0.0
 11
116.119
 21
82.8146
 31
0.0
  0
LINE
  8
0
 62
     0
 10
116.119
 20
82.8146
 30
0.0
 11
116.119
 21
62.3037
 31
0.0
  0
LINE
  8
0
 62
     0
 10
116.119
 20
62.3037
 30
0.0
 11
151.419
 21
62.3037
 31
0.0
  0
LINE
  8
0
 62
     0
 10
151.419
 20
62.3037
 30
0.0
 11
151.419
 21
58.076
 31
0.0
  0
LINE
  8
0
 62
     0
 10
151.419
 20
58.076
 30
0.0
 11
182.309
 21
58.076
 31
0.0
  0
LINE
  8
0
 62
     0
 10
182.309
 20
58.076
 30
0.0
 11
182.309
 21
53.1481
 31
0.0
  0
LINE
  8
0
 62
     0
 10
182.309
 20
53.1481
 30
0.0
 11
151.419
 21
53.1481
 31
0.0
  0
LINE
  8
0
 62
     0
 10
151.419
 20
53.1481
 30
0.0
 11
151.419
 21
49.9844
 31
0.0
  0
LINE
  8
0
 62
     0
 10
151.331
 20
115.805
 30
0.0
 11
187.452
 21
115.805
 31
0.0
  0
LINE
  8
0
 62
     0
 10
187.452
 20
115.805
 30
0.0
 11
187.452
 21
111.93
 31
0.0
  0
LINE
  8
0
 62
     0
 10
187.452
 20
111.93
 30
0.0
 11
151.331
 21
111.93
 31
0.0
  0
LINE
  8
0
 62
     0
 10
151.331
 20
111.93
 30
0.0
 11
151.331
 21
115.805
 31
0.0
  0
LINE
  8
0
 62
     0
 10
227.154
 20
93.701
 30
0.0
 11
223.88
 21
93.701
 31
0.0
  0
LINE
  8
0
 62
     0
 10
223.88
 20
93.701
 30
0.0
 11
228.461
 21
86.7668
 31
0.0
  0
LINE
  8
0
 62
     0
 10
228.461
 20
86.7668
 30
0.0
 11
223.527
 21
86.7668
 31
0.0
  0
LINE
  8
0
 62
     0
 10
223.527
 20
86.7668
 30
0.0
 11
218.754
 21
93.701
 31
0.0
  0
LINE
  8
0
 62
     0
 10
218.754
 20
93.701
 30
0.0
 11
215.628
 21
93.701
 31
0.0
  0
LINE
  8
0
 62
     0
 10
215.628
 20
93.701
 30
0.0
 11
212.669
 21
97.995
 31
0.0
  0
LINE
  8
0
 62
     0
 10
212.669
 20
97.995
 30
0.0
 11
212.669
 21
66.234
 31
0.0
  0
LINE
  8
0
 62
     0
 10
212.669
 20
66.234
 30
0.0
 11
208.441
 21
66.234
 31
0.0
  0
LINE
  8
0
 62
     0
 10
208.441
 20
66.234
 30
0.0
 11
208.441
 21
24.3803
 31
0.0
  0
LINE
  8
0
 62
     0
 10
208.441
 20
24.3803
 30
0.0
 11
203.86
 21
24.3803
 31
0.0
  0
LINE
  8
0
 62
     0
 10
203.86
 20
24.3803
 30
0.0
 11
203.86
 21
66.234
 31
0.0
  0
LINE
  8
0
 62
     0
 10
203.86
 20
66.234
 30
0.0
 11
199.638
 21
66.234
 31
0.0
  0
LINE
  8
0
 62
     0
 10
199.638
 20
66.234
 30
0.0
 11
199.638
 21
115.805
 31
0.0
  0
LINE
  8
0
 62
     0
 10
199.638
 20
115.805
 30
0.0
 11
212.74
 21
115.805
 31
0.0
  0
LINE
  8
0
 62
     0
 10
212.74
 20
115.805
 30
0.0
 11
227.154
 21
93.701
 31
0.0
  0
LINE
  8
0
 62
     0
 10
242.037
 20
65.9419
 30
0.0
 11
281.703
 21
6.60908
 31
0.0
  0
LINE
  8
0
 62
     0
 10
281.703
 20
6.60908
 30
0.0
 11
281.703
 21
116.505
 31
0.0
  0
LINE
  8
0
 62
     0
 10
281.703
 20
116.505
 30
0.0
 11
286.278
 21
116.505
 31
0.0
  0
LINE
  8
0
 62
     0
 10
286.278
 20
116.505
 30
0.0
 11
286.278
 21
-0
 31
0.0
  0
LINE
  8
0
 62
     0
 10
286.278
 20
-0
 30
0.0
 11
280.711
 21
-0
 31
0.0
  0
LINE
  8
0
 62
     0
 10
280.711
 20
-0
 30
0.0
 11
236.983
 21
65.9419
 31
0.0
  0
LINE
  8
0
 62
     0
 10
236.983
 20
65.9419
 30
0.0
 11
242.037
 21
65.9419
 31
0.0
  0
LINE
  8
0
 62
     0
 10
15.4354
 20
132.423
 30
0.0
 11
15.4354
 21
159.603
 31
0.0
  0
LINE
  8
0
 62
     0
 10
15.4354
 20
159.603
 30
0.0
 11
16.841
 21
159.603
 31
0.0
  0
LINE
  8
0
 62
     0
 10
16.841
 20
159.603
 30
0.0
 11
16.841
 21
149.328
 31
0.0
  0
LINE
  8
0
 62
     0
 10
16.841
 20
149.328
 30
0.0
 11
31.7183
 21
149.328
 31
0.0
  0
LINE
  8
0
 62
     0
 10
31.7183
 20
149.328
 30
0.0
 11
33.897
 21
149.753
 31
0.0
  0
LINE
  8
0
 62
     0
 10
33.897
 20
149.753
 30
0.0
 11
35.9241
 21
151.087
 31
0.0
  0
LINE
  8
0
 62
     0
 10
35.9241
 20
151.087
 30
0.0
 11
36.8268
 21
151.974
 31
0.0
  0
LINE
  8
0
 62
     0
 10
36.8268
 20
151.974
 30
0.0
 11
37.6107
 21
153.06
 31
0.0
  0
LINE
  8
0
 62
     0
 10
37.6107
 20
153.06
 30
0.0
 11
38.2707
 21
154.317
 31
0.0
  0
LINE
  8
0
 62
     0
 10
38.2707
 20
154.317
 30
0.0
 11
38.807
 21
155.712
 31
0.0
  0
LINE
  8
0
 62
     0
 10
38.807
 20
155.712
 30
0.0
 11
39.0165
 21
156.902
 31
0.0
  0
LINE
  8
0
 62
     0
 10
39.0165
 20
156.902
 30
0.0
 11
38.9985
 21
157.397
 31
0.0
  0
LINE
  8
0
 62
     0
 10
38.9985
 20
157.397
 30
0.0
 11
39.044
 21
157.867
 31
0.0
  0
LINE
  8
0
 62
     0
 10
39.044
 20
157.867
 30
0.0
 11
38.8842
 21
159.21
 31
0.0
  0
LINE
  8
0
 62
     0
 10
38.8842
 20
159.21
 30
0.0
 11
38.5699
 21
160.54
 31
0.0
  0
LINE
  8
0
 62
     0
 10
38.5699
 20
160.54
 30
0.0
 11
37.9635
 21
161.751
 31
0.0
  0
LINE
  8
0
 62
     0
 10
37.9635
 20
161.751
 30
0.0
 11
37.1972
 21
162.883
 31
0.0
  0
LINE
  8
0
 62
     0
 10
37.1972
 20
162.883
 30
0.0
 11
36.1654
 21
163.799
 31
0.0
  0
LINE
  8
0
 62
     0
 10
36.1654
 20
163.799
 30
0.0
 11
34.9815
 21
164.548
 31
0.0
  0
LINE
  8
0
 62
     0
 10
34.9815
 20
164.548
 30
0.0
 11
33.5442
 21
165.02
 31
0.0
  0
LINE
  8
0
 62
     0
 10
33.5442
 20
165.02
 30
0.0
 11
31.9553
 21
165.181
 31
0.0
  0
LINE
  8
0
 62
     0
 10
31.9553
 20
165.181
 30
0.0
 11
23.4997
 21
165.181
 31
0.0
  0
LINE
  8
0
 62
     0
 10
23.4997
 20
165.181
 30
0.0
 11
23.4997
 21
166.592
 31
0.0
  0
LINE
  8
0
 62
     0
 10
23.4997
 20
166.592
 30
0.0
 11
32.286
 21
166.592
 31
0.0
  0
LINE
  8
0
 62
     0
 10
32.286
 20
166.592
 30
0.0
 11
34.4096
 21
166.303
 31
0.0
  0
LINE
  8
0
 62
     0
 10
34.4096
 20
166.303
 30
0.0
 11
36.2768
 21
165.584
 31
0.0
  0
LINE
  8
0
 62
     0
 10
36.2768
 20
165.584
 30
0.0
 11
37.7776
 21
164.437
 31
0.0
  0
LINE
  8
0
 62
     0
 10
37.7776
 20
164.437
 30
0.0
 11
38.9449
 21
163.015
 31
0.0
  0
LINE
  8
0
 62
     0
 10
38.9449
 20
163.015
 30
0.0
 11
39.7344
 21
161.332
 31
0.0
  0
LINE
  8
0
 62
     0
 10
39.7344
 20
161.332
 30
0.0
 11
40.2237
 21
159.531
 31
0.0
  0
LINE
  8
0
 62
     0
 10
40.2237
 20
159.531
 30
0.0
 11
40.3186
 21
157.601
 31
0.0
  0
LINE
  8
0
 62
     0
 10
40.3186
 20
157.601
 30
0.0
 11
40.0801
 21
155.794
 31
0.0
  0
LINE
  8
0
 62
     0
 10
40.0801
 20
155.794
 30
0.0
 11
39.6406
 21
154.389
 31
0.0
  0
LINE
  8
0
 62
     0
 10
39.6406
 20
154.389
 30
0.0
 11
39.0384
 21
153.005
 31
0.0
  0
LINE
  8
0
 62
     0
 10
39.0384
 20
153.005
 30
0.0
 11
38.1536
 21
151.666
 31
0.0
  0
LINE
  8
0
 62
     0
 10
38.1536
 20
151.666
 30
0.0
 11
37.1754
 21
150.486
 31
0.0
  0
LINE
  8
0
 62
     0
 10
37.1754
 20
150.486
 30
0.0
 11
35.9668
 21
149.454
 31
0.0
  0
LINE
  8
0
 62
     0
 10
35.9668
 20
149.454
 30
0.0
 11
34.6728
 21
148.639
 31
0.0
  0
LINE
  8
0
 62
     0
 10
34.6728
 20
148.639
 30
0.0
 11
33.2245
 21
148.059
 31
0.0
  0
LINE
  8
0
 62
     0
 10
33.2245
 20
148.059
 30
0.0
 11
31.7679
 21
147.923
 31
0.0
  0
LINE
  8
0
 62
     0
 10
31.7679
 20
147.923
 30
0.0
 11
16.841
 21
147.923
 31
0.0
  0
LINE
  8
0
 62
     0
 10
16.841
 20
147.923
 30
0.0
 11
16.841
 21
132.423
 31
0.0
  0
LINE
  8
0
 62
     0
 10
16.841
 20
132.423
 30
0.0
 11
15.4354
 21
132.423
 31
0.0
  0
LINE
  8
0
 62
     0
 10
71.6774
 20
148.276
 30
0.0
 11
80.5628
 21
132.423
 31
0.0
  0
LINE
  8
0
 62
     0
 10
80.5628
 20
132.423
 30
0.0
 11
78.8321
 21
132.423
 31
0.0
  0
LINE
  8
0
 62
     0
 10
78.8321
 20
132.423
 30
0.0
 11
70.327
 21
148.276
 31
0.0
  0
LINE
  8
0
 62
     0
 10
70.327
 20
148.276
 30
0.0
 11
57.8803
 21
148.276
 31
0.0
  0
LINE
  8
0
 62
     0
 10
57.8803
 20
148.276
 30
0.0
 11
57.8803
 21
132.423
 31
0.0
  0
LINE
  8
0
 62
     0
 10
57.8803
 20
132.423
 30
0.0
 11
56.4748
 21
132.423
 31
0.0
  0
LINE
  8
0
 62
     0
 10
56.4748
 20
132.423
 30
0.0
 11
56.4748
 21
166.239
 31
0.0
  0
LINE
  8
0
 62
     0
 10
56.4748
 20
166.239
 30
0.0
 11
73.1435
 21
166.239
 31
0.0
  0
LINE
  8
0
 62
     0
 10
73.1435
 20
166.239
 30
0.0
 11
74.9928
 21
166.014
 31
0.0
  0
LINE
  8
0
 62
     0
 10
74.9928
 20
166.014
 30
0.0
 11
76.6272
 21
165.49
 31
0.0
  0
LINE
  8
0
 62
     0
 10
76.6272
 20
165.49
 30
0.0
 11
77.9999
 21
164.605
 31
0.0
  0
LINE
  8
0
 62
     0
 10
77.9999
 20
164.605
 30
0.0
 11
79.1242
 21
163.566
 31
0.0
  0
LINE
  8
0
 62
     0
 10
79.1242
 20
163.566
 30
0.0
 11
79.9842
 21
162.29
 31
0.0
  0
LINE
  8
0
 62
     0
 10
79.9842
 20
162.29
 30
0.0
 11
80.6291
 21
160.871
 31
0.0
  0
LINE
  8
0
 62
     0
 10
80.6291
 20
160.871
 30
0.0
 11
80.9957
 21
159.308
 31
0.0
  0
LINE
  8
0
 62
     0
 10
80.9957
 20
159.308
 30
0.0
 11
81.147
 21
157.762
 31
0.0
  0
LINE
  8
0
 62
     0
 10
81.147
 20
157.762
 30
0.0
 11
80.9858
 21
156.187
 31
0.0
  0
LINE
  8
0
 62
     0
 10
80.9858
 20
156.187
 30
0.0
 11
80.6732
 21
154.681
 31
0.0
  0
LINE
  8
0
 62
     0
 10
80.6732
 20
154.681
 30
0.0
 11
80.0474
 21
153.194
 31
0.0
  0
LINE
  8
0
 62
     0
 10
80.0474
 20
153.194
 30
0.0
 11
79.218
 21
151.836
 31
0.0
  0
LINE
  8
0
 62
     0
 10
79.218
 20
151.836
 30
0.0
 11
78.0838
 21
150.618
 31
0.0
  0
LINE
  8
0
 62
     0
 10
78.0838
 20
150.618
 30
0.0
 11
76.7429
 21
149.571
 31
0.0
  0
LINE
  8
0
 62
     0
 10
76.7429
 20
149.571
 30
0.0
 11
75.1032
 21
148.741
 31
0.0
  0
LINE
  8
0
 62
     0
 10
75.1032
 20
148.741
 30
0.0
 11
73.2317
 21
148.276
 31
0.0
  0
LINE
  8
0
 62
     0
 10
73.2317
 20
148.276
 30
0.0
 11
71.6774
 21
148.276
 31
0.0
  0
LINE
  8
0
 62
     0
 10
57.8803
 20
149.681
 30
0.0
 11
73.061
 21
149.681
 31
0.0
  0
LINE
  8
0
 62
     0
 10
73.061
 20
149.681
 30
0.0
 11
74.5931
 21
150.089
 31
0.0
  0
LINE
  8
0
 62
     0
 10
74.5931
 20
150.089
 30
0.0
 11
75.9326
 21
150.8
 31
0.0
  0
LINE
  8
0
 62
     0
 10
75.9326
 20
150.8
 30
0.0
 11
77.064
 21
151.655
 31
0.0
  0
LINE
  8
0
 62
     0
 10
77.064
 20
151.655
 30
0.0
 11
78.0108
 21
152.658
 31
0.0
  0
LINE
  8
0
 62
     0
 10
78.0108
 20
152.658
 30
0.0
 11
78.7467
 21
153.77
 31
0.0
  0
LINE
  8
0
 62
     0
 10
78.7467
 20
153.77
 30
0.0
 11
79.2896
 21
155.017
 31
0.0
  0
LINE
  8
0
 62
     0
 10
79.2896
 20
155.017
 30
0.0
 11
79.5941
 21
156.315
 31
0.0
  0
LINE
  8
0
 62
     0
 10
79.5941
 20
156.315
 30
0.0
 11
79.7359
 21
157.635
 31
0.0
  0
LINE
  8
0
 62
     0
 10
79.7359
 20
157.635
 30
0.0
 11
79.605
 21
158.593
 31
0.0
  0
LINE
  8
0
 62
     0
 10
79.605
 20
158.593
 30
0.0
 11
79.3831
 21
159.355
 31
0.0
  0
LINE
  8
0
 62
     0
 10
79.3831
 20
159.355
 30
0.0
 11
79.0455
 21
160.435
 31
0.0
  0
LINE
  8
0
 62
     0
 10
79.0455
 20
160.435
 30
0.0
 11
78.6666
 21
161.466
 31
0.0
  0
LINE
  8
0
 62
     0
 10
78.6666
 20
161.466
 30
0.0
 11
78.0644
 21
162.378
 31
0.0
  0
LINE
  8
0
 62
     0
 10
78.0644
 20
162.378
 30
0.0
 11
77.3934
 21
163.208
 31
0.0
  0
LINE
  8
0
 62
     0
 10
77.3934
 20
163.208
 30
0.0
 11
76.5157
 21
163.875
 31
0.0
  0
LINE
  8
0
 62
     0
 10
76.5157
 20
163.875
 30
0.0
 11
75.5138
 21
164.399
 31
0.0
  0
LINE
  8
0
 62
     0
 10
75.5138
 20
164.399
 30
0.0
 11
74.3066
 21
164.694
 31
0.0
  0
LINE
  8
0
 62
     0
 10
74.3066
 20
164.694
 30
0.0
 11
73.0331
 21
164.828
 31
0.0
  0
LINE
  8
0
 62
     0
 10
73.0331
 20
164.828
 30
0.0
 11
57.8803
 21
164.828
 31
0.0
  0
LINE
  8
0
 62
     0
 10
57.8803
 20
164.828
 30
0.0
 11
57.8803
 21
149.681
 31
0.0
  0
LINE
  8
0
 62
     0
 10
96.6212
 20
149.367
 30
0.0
 11
97.04
 21
145.277
 31
0.0
  0
LINE
  8
0
 62
     0
 10
97.04
 20
145.277
 30
0.0
 11
97.5349
 21
143.371
 31
0.0
  0
LINE
  8
0
 62
     0
 10
97.5349
 20
143.371
 30
0.0
 11
98.2197
 21
141.622
 31
0.0
  0
LINE
  8
0
 62
     0
 10
98.2197
 20
141.622
 30
0.0
 11
96.8858
 21
141.622
 31
0.0
  0
LINE
  8
0
 62
     0
 10
96.8858
 20
141.622
 30
0.0
 11
96.1319
 21
143.415
 31
0.0
  0
LINE
  8
0
 62
     0
 10
96.1319
 20
143.415
 30
0.0
 11
95.6398
 21
145.299
 31
0.0
  0
LINE
  8
0
 62
     0
 10
95.6398
 20
145.299
 30
0.0
 11
95.3064
 21
147.259
 31
0.0
  0
LINE
  8
0
 62
     0
 10
95.3064
 20
147.259
 30
0.0
 11
95.2101
 21
149.367
 31
0.0
  0
LINE
  8
0
 62
     0
 10
95.2101
 20
149.367
 30
0.0
 11
95.5202
 21
152.837
 31
0.0
  0
LINE
  8
0
 62
     0
 10
95.5202
 20
152.837
 30
0.0
 11
96.4502
 21
156.119
 31
0.0
  0
LINE
  8
0
 62
     0
 10
96.4502
 20
156.119
 30
0.0
 11
97.9054
 21
159.093
 31
0.0
  0
LINE
  8
0
 62
     0
 10
97.9054
 20
159.093
 30
0.0
 11
99.8732
 21
161.659
 31
0.0
  0
LINE
  8
0
 62
     0
 10
99.8732
 20
161.659
 30
0.0
 11
102.23
 21
163.752
 31
0.0
  0
LINE
  8
0
 62
     0
 10
102.23
 20
163.752
 30
0.0
 11
104.977
 21
165.479
 31
0.0
  0
LINE
  8
0
 62
     0
 10
104.977
 20
165.479
 30
0.0
 11
107.975
 21
166.548
 31
0.0
  0
LINE
  8
0
 62
     0
 10
107.975
 20
166.548
 30
0.0
 11
111.25
 21
166.945
 31
0.0
  0
LINE
  8
0
 62
     0
 10
111.25
 20
166.945
 30
0.0
 11
114.434
 21
166.558
 31
0.0
  0
LINE
  8
0
 62
     0
 10
114.434
 20
166.558
 30
0.0
 11
117.468
 21
165.551
 31
0.0
  0
LINE
  8
0
 62
     0
 10
117.468
 20
165.551
 30
0.0
 11
120.198
 21
163.87
 31
0.0
  0
LINE
  8
0
 62
     0
 10
120.198
 20
163.87
 30
0.0
 11
122.567
 21
161.775
 31
0.0
  0
LINE
  8
0
 62
     0
 10
122.567
 20
161.775
 30
0.0
 11
124.496
 21
159.179
 31
0.0
  0
LINE
  8
0
 62
     0
 10
124.496
 20
159.179
 30
0.0
 11
126.018
 21
156.174
 31
0.0
  0
LINE
  8
0
 62
     0
 10
126.018
 20
156.174
 30
0.0
 11
126.953
 21
152.845
 31
0.0
  0
LINE
  8
0
 62
     0
 10
126.953
 20
152.845
 30
0.0
 11
127.285
 21
149.35
 31
0.0
  0
LINE
  8
0
 62
     0
 10
127.285
 20
149.35
 30
0.0
 11
126.902
 21
145.77
 31
0.0
  0
LINE
  8
0
 62
     0
 10
126.902
 20
145.77
 30
0.0
 11
125.918
 21
142.504
 31
0.0
  0
LINE
  8
0
 62
     0
 10
125.918
 20
142.504
 30
0.0
 11
124.353
 21
139.484
 31
0.0
  0
LINE
  8
0
 62
     0
 10
124.353
 20
139.484
 30
0.0
 11
122.402
 21
136.904
 31
0.0
  0
LINE
  8
0
 62
     0
 10
122.402
 20
136.904
 30
0.0
 11
120.064
 21
134.723
 31
0.0
  0
LINE
  8
0
 62
     0
 10
120.064
 20
134.723
 30
0.0
 11
117.369
 21
133.106
 31
0.0
  0
LINE
  8
0
 62
     0
 10
117.369
 20
133.106
 30
0.0
 11
114.359
 21
132.023
 31
0.0
  0
LINE
  8
0
 62
     0
 10
114.359
 20
132.023
 30
0.0
 11
111.234
 21
131.717
 31
0.0
  0
LINE
  8
0
 62
     0
 10
111.234
 20
131.717
 30
0.0
 11
109.821
 21
131.807
 31
0.0
  0
LINE
  8
0
 62
     0
 10
109.821
 20
131.807
 30
0.0
 11
108.494
 21
132.07
 31
0.0
  0
LINE
  8
0
 62
     0
 10
108.494
 20
132.07
 30
0.0
 11
108.494
 21
133.481
 31
0.0
  0
LINE
  8
0
 62
     0
 10
108.494
 20
133.481
 30
0.0
 11
109.81
 21
133.216
 31
0.0
  0
LINE
  8
0
 62
     0
 10
109.81
 20
133.216
 30
0.0
 11
111.234
 21
133.128
 31
0.0
  0
LINE
  8
0
 62
     0
 10
111.234
 20
133.128
 30
0.0
 11
114.147
 21
133.449
 31
0.0
  0
LINE
  8
0
 62
     0
 10
114.147
 20
133.449
 30
0.0
 11
116.923
 21
134.413
 31
0.0
  0
LINE
  8
0
 62
     0
 10
116.923
 20
134.413
 30
0.0
 11
119.394
 21
135.895
 31
0.0
  0
LINE
  8
0
 62
     0
 10
119.394
 20
135.895
 30
0.0
 11
121.575
 21
137.885
 31
0.0
  0
LINE
  8
0
 62
     0
 10
121.575
 20
137.885
 30
0.0
 11
123.319
 21
140.243
 31
0.0
  0
LINE
  8
0
 62
     0
 10
123.319
 20
140.243
 30
0.0
 11
124.716
 21
143.022
 31
0.0
  0
LINE
  8
0
 62
     0
 10
124.716
 20
143.022
 30
0.0
 11
125.56
 21
146.078
 31
0.0
  0
LINE
  8
0
 62
     0
 10
125.56
 20
146.078
 30
0.0
 11
125.88
 21
149.35
 31
0.0
  0
LINE
  8
0
 62
     0
 10
125.88
 20
149.35
 30
0.0
 11
125.549
 21
152.546
 31
0.0
  0
LINE
  8
0
 62
     0
 10
125.549
 20
152.546
 30
0.0
 11
124.722
 21
155.634
 31
0.0
  0
LINE
  8
0
 62
     0
 10
124.722
 20
155.634
 30
0.0
 11
123.329
 21
158.363
 31
0.0
  0
LINE
  8
0
 62
     0
 10
123.329
 20
158.363
 30
0.0
 11
121.58
 21
160.777
 31
0.0
  0
LINE
  8
0
 62
     0
 10
121.58
 20
160.777
 30
0.0
 11
119.391
 21
162.723
 31
0.0
  0
LINE
  8
0
 62
     0
 10
119.391
 20
162.723
 30
0.0
 11
116.928
 21
164.25
 31
0.0
  0
LINE
  8
0
 62
     0
 10
116.928
 20
164.25
 30
0.0
 11
114.151
 21
165.203
 31
0.0
  0
LINE
  8
0
 62
     0
 10
114.151
 20
165.203
 30
0.0
 11
111.25
 21
165.534
 31
0.0
  0
LINE
  8
0
 62
     0
 10
111.25
 20
165.534
 30
0.0
 11
108.259
 21
165.176
 31
0.0
  0
LINE
  8
0
 62
     0
 10
108.259
 20
165.176
 30
0.0
 11
105.512
 21
164.25
 31
0.0
  0
LINE
  8
0
 62
     0
 10
105.512
 20
164.25
 30
0.0
 11
103.01
 21
162.734
 31
0.0
  0
LINE
  8
0
 62
     0
 10
103.01
 20
162.734
 30
0.0
 11
100.866
 21
160.783
 31
0.0
  0
LINE
  8
0
 62
     0
 10
100.866
 20
160.783
 30
0.0
 11
99.0921
 21
158.388
 31
0.0
  0
LINE
  8
0
 62
     0
 10
99.0921
 20
158.388
 30
0.0
 11
97.7512
 21
155.645
 31
0.0
  0
LINE
  8
0
 62
     0
 10
97.7512
 20
155.645
 30
0.0
 11
96.8939
 21
152.564
 31
0.0
  0
LINE
  8
0
 62
     0
 10
96.8939
 20
152.564
 30
0.0
 11
96.6212
 21
149.367
 31
0.0
  0
LINE
  8
0
 62
     0
 10
141.903
 20
145.007
 30
0.0
 11
141.996
 21
143.021
 31
0.0
  0
LINE
  8
0
 62
     0
 10
141.996
 20
143.021
 30
0.0
 11
142.278
 21
141.369
 31
0.0
  0
LINE
  8
0
 62
     0
 10
142.278
 20
141.369
 30
0.0
 11
142.732
 21
139.911
 31
0.0
  0
LINE
  8
0
 62
     0
 10
142.732
 20
139.911
 30
0.0
 11
143.348
 21
138.684
 31
0.0
  0
LINE
  8
0
 62
     0
 10
143.348
 20
138.684
 30
0.0
 11
144.102
 21
137.593
 31
0.0
  0
LINE
  8
0
 62
     0
 10
144.102
 20
137.593
 30
0.0
 11
145.007
 21
136.733
 31
0.0
  0
LINE
  8
0
 62
     0
 10
145.007
 20
136.733
 30
0.0
 11
145.988
 21
135.961
 31
0.0
  0
LINE
  8
0
 62
     0
 10
145.988
 20
135.961
 30
0.0
 11
147.124
 21
135.305
 31
0.0
  0
LINE
  8
0
 62
     0
 10
147.124
 20
135.305
 30
0.0
 11
147.239
 21
135.228
 31
0.0
  0
LINE
  8
0
 62
     0
 10
147.239
 20
135.228
 30
0.0
 11
147.277
 21
135.159
 31
0.0
  0
LINE
  8
0
 62
     0
 10
147.277
 20
135.159
 30
0.0
 11
147.361
 21
135.162
 31
0.0
  0
LINE
  8
0
 62
     0
 10
147.361
 20
135.162
 30
0.0
 11
147.664
 21
134.954
 31
0.0
  0
LINE
  8
0
 62
     0
 10
147.664
 20
134.954
 30
0.0
 11
148
 21
134.848
 31
0.0
  0
LINE
  8
0
 62
     0
 10
148
 20
134.848
 30
0.0
 11
148.3
 21
134.687
 31
0.0
  0
LINE
  8
0
 62
     0
 10
148.3
 20
134.687
 30
0.0
 11
148.639
 21
134.589
 31
0.0
  0
LINE
  8
0
 62
     0
 10
148.639
 20
134.589
 30
0.0
 11
150.639
 21
134.017
 31
0.0
  0
LINE
  8
0
 62
     0
 10
150.639
 20
134.017
 30
0.0
 11
152.768
 21
133.834
 31
0.0
  0
LINE
  8
0
 62
     0
 10
152.768
 20
133.834
 30
0.0
 11
154.436
 21
133.981
 31
0.0
  0
LINE
  8
0
 62
     0
 10
154.436
 20
133.981
 30
0.0
 11
156.064
 21
134.424
 31
0.0
  0
LINE
  8
0
 62
     0
 10
156.064
 20
134.424
 30
0.0
 11
157.517
 21
135.126
 31
0.0
  0
LINE
  8
0
 62
     0
 10
157.517
 20
135.126
 30
0.0
 11
158.815
 21
136.171
 31
0.0
  0
LINE
  8
0
 62
     0
 10
158.815
 20
136.171
 30
0.0
 11
159.865
 21
137.448
 31
0.0
  0
LINE
  8
0
 62
     0
 10
159.865
 20
137.448
 30
0.0
 11
160.76
 21
139.076
 31
0.0
  0
LINE
  8
0
 62
     0
 10
160.76
 20
139.076
 30
0.0
 11
161.33
 21
140.94
 31
0.0
  0
LINE
  8
0
 62
     0
 10
161.33
 20
140.94
 30
0.0
 11
161.642
 21
143.188
 31
0.0
  0
LINE
  8
0
 62
     0
 10
161.642
 20
143.188
 30
0.0
 11
161.6
 21
143.246
 31
0.0
  0
LINE
  8
0
 62
     0
 10
161.6
 20
143.246
 30
0.0
 11
161.642
 21
143.419
 31
0.0
  0
LINE
  8
0
 62
     0
 10
161.642
 20
143.419
 30
0.0
 11
161.6
 21
143.74
 31
0.0
  0
LINE
  8
0
 62
     0
 10
161.6
 20
143.74
 30
0.0
 11
161.642
 21
144.345
 31
0.0
  0
LINE
  8
0
 62
     0
 10
161.642
 20
144.345
 30
0.0
 11
161.6
 21
145.214
 31
0.0
  0
LINE
  8
0
 62
     0
 10
161.6
 20
145.214
 30
0.0
 11
161.642
 21
146.495
 31
0.0
  0
LINE
  8
0
 62
     0
 10
161.642
 20
146.495
 30
0.0
 11
161.6
 21
148.132
 31
0.0
  0
LINE
  8
0
 62
     0
 10
161.6
 20
148.132
 30
0.0
 11
161.642
 21
150.364
 31
0.0
  0
LINE
  8
0
 62
     0
 10
161.642
 20
150.364
 30
0.0
 11
161.6
 21
153.099
 31
0.0
  0
LINE
  8
0
 62
     0
 10
161.6
 20
153.099
 30
0.0
 11
161.642
 21
156.533
 31
0.0
  0
LINE
  8
0
 62
     0
 10
161.642
 20
156.533
 30
0.0
 11
161.6
 21
160.623
 31
0.0
  0
LINE
  8
0
 62
     0
 10
161.6
 20
160.623
 30
0.0
 11
161.642
 21
165.534
 31
0.0
  0
LINE
  8
0
 62
     0
 10
161.642
 20
165.534
 30
0.0
 11
163.054
 21
165.534
 31
0.0
  0
LINE
  8
0
 62
     0
 10
163.054
 20
165.534
 30
0.0
 11
163.054
 21
143.061
 31
0.0
  0
LINE
  8
0
 62
     0
 10
163.054
 20
143.061
 30
0.0
 11
162.724
 21
140.525
 31
0.0
  0
LINE
  8
0
 62
     0
 10
162.724
 20
140.525
 30
0.0
 11
162.094
 21
138.359
 31
0.0
  0
LINE
  8
0
 62
     0
 10
162.094
 20
138.359
 30
0.0
 11
161.086
 21
136.495
 31
0.0
  0
LINE
  8
0
 62
     0
 10
161.086
 20
136.495
 30
0.0
 11
159.824
 21
135.035
 31
0.0
  0
LINE
  8
0
 62
     0
 10
159.824
 20
135.035
 30
0.0
 11
158.269
 21
133.86
 31
0.0
  0
LINE
  8
0
 62
     0
 10
158.269
 20
133.86
 30
0.0
 11
156.571
 21
133.062
 31
0.0
  0
LINE
  8
0
 62
     0
 10
156.571
 20
133.062
 30
0.0
 11
154.667
 21
132.547
 31
0.0
  0
LINE
  8
0
 62
     0
 10
154.667
 20
132.547
 30
0.0
 11
152.729
 21
132.423
 31
0.0
  0
LINE
  8
0
 62
     0
 10
152.729
 20
132.423
 30
0.0
 11
151.398
 21
132.449
 31
0.0
  0
LINE
  8
0
 62
     0
 10
151.398
 20
132.449
 30
0.0
 11
150.409
 21
132.527
 31
0.0
  0
LINE
  8
0
 62
     0
 10
150.409
 20
132.527
 30
0.0
 11
148.573
 21
133.128
 31
0.0
  0
LINE
  8
0
 62
     0
 10
148.573
 20
133.128
 30
0.0
 11
148.573
 21
133.073
 31
0.0
  0
LINE
  8
0
 62
     0
 10
148.573
 20
133.073
 30
0.0
 11
144.901
 21
134.882
 31
0.0
  0
LINE
  8
0
 62
     0
 10
144.901
 20
134.882
 30
0.0
 11
142.471
 21
137.516
 31
0.0
  0
LINE
  8
0
 62
     0
 10
142.471
 20
137.516
 30
0.0
 11
141.006
 21
140.857
 31
0.0
  0
LINE
  8
0
 62
     0
 10
141.006
 20
140.857
 30
0.0
 11
140.492
 21
145.007
 31
0.0
  0
LINE
  8
0
 62
     0
 10
140.492
 20
145.007
 30
0.0
 11
141.903
 21
145.007
 31
0.0
  0
LINE
  8
0
 62
     0
 10
181.402
 20
147.57
 30
0.0
 11
181.402
 21
133.834
 31
0.0
  0
LINE
  8
0
 62
     0
 10
181.402
 20
133.834
 30
0.0
 11
203.743
 21
133.834
 31
0.0
  0
LINE
  8
0
 62
     0
 10
203.743
 20
133.834
 30
0.0
 11
203.743
 21
132.423
 31
0.0
  0
LINE
  8
0
 62
     0
 10
203.743
 20
132.423
 30
0.0
 11
179.997
 21
132.423
 31
0.0
  0
LINE
  8
0
 62
     0
 10
179.997
 20
132.423
 30
0.0
 11
179.997
 21
165.887
 31
0.0
  0
LINE
  8
0
 62
     0
 10
179.997
 20
165.887
 30
0.0
 11
185.514
 21
165.887
 31
0.0
  0
LINE
  8
0
 62
     0
 10
185.514
 20
165.887
 30
0.0
 11
185.514
 21
164.476
 31
0.0
  0
LINE
  8
0
 62
     0
 10
185.514
 20
164.476
 30
0.0
 11
181.402
 21
164.476
 31
0.0
  0
LINE
  8
0
 62
     0
 10
181.402
 20
164.476
 30
0.0
 11
181.402
 21
148.981
 31
0.0
  0
LINE
  8
0
 62
     0
 10
181.402
 20
148.981
 30
0.0
 11
201.621
 21
148.981
 31
0.0
  0
LINE
  8
0
 62
     0
 10
201.621
 20
148.981
 30
0.0
 11
201.621
 21
147.57
 31
0.0
  0
LINE
  8
0
 62
     0
 10
201.621
 20
147.57
 30
0.0
 11
181.402
 21
147.57
 31
0.0
  0
LINE
  8
0
 62
     0
 10
192.597
 20
165.887
 30
0.0
 11
203.037
 21
165.887
 31
0.0
  0
LINE
  8
0
 62
     0
 10
203.037
 20
165.887
 30
0.0
 11
203.037
 21
164.476
 31
0.0
  0
LINE
  8
0
 62
     0
 10
203.037
 20
164.476
 30
0.0
 11
192.597
 21
164.476
 31
0.0
  0
LINE
  8
0
 62
     0
 10
192.597
 20
164.476
 30
0.0
 11
192.597
 21
165.887
 31
0.0
  0
LINE
  8
0
 62
     0
 10
234.717
 20
165.534
 30
0.0
 11
231.782
 21
165.183
 31
0.0
  0
LINE
  8
0
 62
     0
 10
231.782
 20
165.183
 30
0.0
 11
229.073
 21
164.277
 31
0.0
  0
LINE
  8
0
 62
     0
 10
229.073
 20
164.277
 30
0.0
 11
226.533
 21
162.793
 31
0.0
  0
LINE
  8
0
 62
     0
 10
226.533
 20
162.793
 30
0.0
 11
224.393
 21
160.893
 31
0.0
  0
LINE
  8
0
 62
     0
 10
224.393
 20
160.893
 30
0.0
 11
222.57
 21
158.549
 31
0.0
  0
LINE
  8
0
 62
     0
 10
222.57
 20
158.549
 30
0.0
 11
221.207
 21
155.899
 31
0.0
  0
LINE
  8
0
 62
     0
 10
221.207
 20
155.899
 30
0.0
 11
220.288
 21
152.921
 31
0.0
  0
LINE
  8
0
 62
     0
 10
220.288
 20
152.921
 30
0.0
 11
219.978
 21
149.813
 31
0.0
  0
LINE
  8
0
 62
     0
 10
219.978
 20
149.813
 30
0.0
 11
220.277
 21
146.652
 31
0.0
  0
LINE
  8
0
 62
     0
 10
220.277
 20
146.652
 30
0.0
 11
221.179
 21
143.656
 31
0.0
  0
LINE
  8
0
 62
     0
 10
221.179
 20
143.656
 30
0.0
 11
222.585
 21
140.851
 31
0.0
  0
LINE
  8
0
 62
     0
 10
222.585
 20
140.851
 30
0.0
 11
224.464
 21
138.447
 31
0.0
  0
LINE
  8
0
 62
     0
 10
224.464
 20
138.447
 30
0.0
 11
226.694
 21
136.404
 31
0.0
  0
LINE
  8
0
 62
     0
 10
226.694
 20
136.404
 30
0.0
 11
229.354
 21
134.826
 31
0.0
  0
LINE
  8
0
 62
     0
 10
229.354
 20
134.826
 30
0.0
 11
232.238
 21
133.781
 31
0.0
  0
LINE
  8
0
 62
     0
 10
232.238
 20
133.781
 30
0.0
 11
235.373
 21
133.481
 31
0.0
  0
LINE
  8
0
 62
     0
 10
235.373
 20
133.481
 30
0.0
 11
237.839
 21
133.712
 31
0.0
  0
LINE
  8
0
 62
     0
 10
237.839
 20
133.712
 30
0.0
 11
240.334
 21
134.407
 31
0.0
  0
LINE
  8
0
 62
     0
 10
240.334
 20
134.407
 30
0.0
 11
242.71
 21
135.61
 31
0.0
  0
LINE
  8
0
 62
     0
 10
242.71
 20
135.61
 30
0.0
 11
245.058
 21
137.477
 31
0.0
  0
LINE
  8
0
 62
     0
 10
245.058
 20
137.477
 30
0.0
 11
246.712
 21
137.477
 31
0.0
  0
LINE
  8
0
 62
     0
 10
246.712
 20
137.477
 30
0.0
 11
243.976
 21
135
 31
0.0
  0
LINE
  8
0
 62
     0
 10
243.976
 20
135
 30
0.0
 11
241.205
 21
133.343
 31
0.0
  0
LINE
  8
0
 62
     0
 10
241.205
 20
133.343
 30
0.0
 11
238.311
 21
132.362
 31
0.0
  0
LINE
  8
0
 62
     0
 10
238.311
 20
132.362
 30
0.0
 11
235.373
 21
132.07
 31
0.0
  0
LINE
  8
0
 62
     0
 10
235.373
 20
132.07
 30
0.0
 11
231.968
 21
132.441
 31
0.0
  0
LINE
  8
0
 62
     0
 10
231.968
 20
132.441
 30
0.0
 11
228.858
 21
133.552
 31
0.0
  0
LINE
  8
0
 62
     0
 10
228.858
 20
133.552
 30
0.0
 11
226.022
 21
135.278
 31
0.0
  0
LINE
  8
0
 62
     0
 10
226.022
 20
135.278
 30
0.0
 11
223.588
 21
137.51
 31
0.0
  0
LINE
  8
0
 62
     0
 10
223.588
 20
137.51
 30
0.0
 11
221.547
 21
140.152
 31
0.0
  0
LINE
  8
0
 62
     0
 10
221.547
 20
140.152
 30
0.0
 11
219.956
 21
143.199
 31
0.0
  0
LINE
  8
0
 62
     0
 10
219.956
 20
143.199
 30
0.0
 11
218.873
 21
146.448
 31
0.0
  0
LINE
  8
0
 62
     0
 10
218.873
 20
146.448
 30
0.0
 11
218.567
 21
149.863
 31
0.0
  0
LINE
  8
0
 62
     0
 10
218.567
 20
149.863
 30
0.0
 11
218.906
 21
153.286
 31
0.0
  0
LINE
  8
0
 62
     0
 10
218.906
 20
153.286
 30
0.0
 11
219.928
 21
156.533
 31
0.0
  0
LINE
  8
0
 62
     0
 10
219.928
 20
156.533
 30
0.0
 11
221.452
 21
159.432
 31
0.0
  0
LINE
  8
0
 62
     0
 10
221.452
 20
159.432
 30
0.0
 11
223.445
 21
161.951
 31
0.0
  0
LINE
  8
0
 62
     0
 10
223.445
 20
161.951
 30
0.0
 11
225.738
 21
163.985
 31
0.0
  0
LINE
  8
0
 62
     0
 10
225.738
 20
163.985
 30
0.0
 11
228.455
 21
165.6
 31
0.0
  0
LINE
  8
0
 62
     0
 10
228.455
 20
165.6
 30
0.0
 11
231.413
 21
166.607
 31
0.0
  0
LINE
  8
0
 62
     0
 10
231.413
 20
166.607
 30
0.0
 11
234.574
 21
166.945
 31
0.0
  0
LINE
  8
0
 62
     0
 10
234.574
 20
166.945
 30
0.0
 11
238.191
 21
166.546
 31
0.0
  0
LINE
  8
0
 62
     0
 10
238.191
 20
166.546
 30
0.0
 11
241.277
 21
165.501
 31
0.0
  0
LINE
  8
0
 62
     0
 10
241.277
 20
165.501
 30
0.0
 11
243.918
 21
163.604
 31
0.0
  0
LINE
  8
0
 62
     0
 10
243.918
 20
163.604
 30
0.0
 11
246.337
 21
160.92
 31
0.0
  0
LINE
  8
0
 62
     0
 10
246.337
 20
160.92
 30
0.0
 11
244.87
 21
160.92
 31
0.0
  0
LINE
  8
0
 62
     0
 10
244.87
 20
160.92
 30
0.0
 11
242.747
 21
162.982
 31
0.0
  0
LINE
  8
0
 62
     0
 10
242.747
 20
162.982
 30
0.0
 11
240.45
 21
164.443
 31
0.0
  0
LINE
  8
0
 62
     0
 10
240.45
 20
164.443
 30
0.0
 11
237.798
 21
165.228
 31
0.0
  0
LINE
  8
0
 62
     0
 10
237.798
 20
165.228
 30
0.0
 11
234.717
 21
165.534
 31
0.0
  0
LINE
  8
0
 62
     0
 10
284.462
 20
164.123
 30
0.0
 11
271.238
 21
164.123
 31
0.0
  0
LINE
  8
0
 62
     0
 10
271.238
 20
164.123
 30
0.0
 11
271.238
 21
132.423
 31
0.0
  0
LINE
  8
0
 62
     0
 10
271.238
 20
132.423
 30
0.0
 11
269.827
 21
132.423
 31
0.0
  0
LINE
  8
0
 62
     0
 10
269.827
 20
132.423
 30
0.0
 11
269.827
 21
164.123
 31
0.0
  0
LINE
  8
0
 62
     0
 10
269.827
 20
164.123
 30
0.0
 11
258.35
 21
164.123
 31
0.0
  0
LINE
  8
0
 62
     0
 10
258.35
 20
164.123
 30
0.0
 11
258.35
 21
165.534
 31
0.0
  0
LINE
  8
0
 62
     0
 10
258.35
 20
165.534
 30
0.0
 11
284.462
 21
165.534
 31
0.0
  0
LINE
  8
0
 62
     0
 10
284.462
 20
165.534
 30
0.0
 11
284.462
 21
164.123
 31
0.0
  0
ENDSEC
  0
EOF
